<?xml version="1.0" encoding="UTF-8"?>
<svg version="1.1" xmlns="http://www.w3.org/2000/svg" width="500" height="500">
<path d="M0 0 C0.84677634 0.00075944 1.69355267 0.00151888 2.5659889 0.00230134 C3.54183836 -0.00168076 4.51768782 -0.00566286 5.52310848 -0.00976562 C7.14273182 -0.0010271 7.14273182 -0.0010271 8.79507482 0.00788796 C9.93609478 0.00617911 11.07711474 0.00447026 12.25271106 0.00270963 C15.42929169 -0.00002354 18.60571072 0.00625916 21.78227222 0.01626575 C25.20421865 0.02487753 28.62615711 0.02198171 32.04811132 0.0204612 C37.98001567 0.01941091 43.91187612 0.02570257 49.84376943 0.03693688 C58.42035604 0.05316939 66.99692135 0.05839757 75.57352166 0.06091286 C89.48742178 0.06529351 103.4012985 0.07861261 117.3151859 0.09751809 C130.8337394 0.11586734 144.35228654 0.13002851 157.87084997 0.13853371 C158.70369629 0.13905916 159.53654261 0.13958461 160.39462669 0.14012598 C164.57264126 0.14273599 168.75065588 0.14526342 172.92867053 0.14774978 C207.60667932 0.16849378 242.28466093 0.20372934 276.96264684 0.24839699 C278.59017316 3.24647179 279.10913442 4.66501258 278.2661823 8.02205575 C274.46674614 11.69416828 270.18844035 10.92948184 265.10607946 10.86985695 C263.97448888 10.87624578 262.8428983 10.8826346 261.67701709 10.88921702 C257.86497194 10.90454248 254.05395355 10.88395431 250.24194372 10.86363137 C247.51732385 10.86436699 244.79273824 10.87258905 242.06813085 10.88044655 C235.42390164 10.89499343 228.77997736 10.8827189 222.135777 10.86133331 C214.40302694 10.83735505 206.67034723 10.83903572 198.93756825 10.84163922 C185.14296719 10.84533175 171.34851007 10.82448363 157.55395544 10.79038918 C144.15971269 10.75729629 130.76562105 10.7431306 117.37133825 10.74937356 C102.79587789 10.75613361 88.22048089 10.75368831 73.6450299 10.73401415 C72.8746825 10.73297467 72.10433509 10.73193518 71.31064382 10.7308642 C69.76331665 10.72877326 68.21598951 10.72666228 66.6686624 10.72453102 C61.27490689 10.71762782 55.88117086 10.71696738 50.48741186 10.71841347 C43.91674618 10.7198514 37.34620391 10.71019503 30.77557921 10.68646711 C27.4212531 10.67458554 24.067245 10.66909252 20.71287763 10.67330468 C17.08145692 10.67699608 13.45057312 10.66235298 9.81921422 10.64280617 C8.75220643 10.6481341 7.68519864 10.65346202 6.58585727 10.6589514 C5.61683365 10.64989476 4.64781003 10.64083812 3.64942205 10.63150704 C2.39137974 10.62915024 2.39137974 10.62915024 1.10792243 10.62674582 C-1.54478533 10.15890436 -2.43688572 9.38331234 -4.03735316 7.24839699 C-4.34985316 4.68589699 -4.34985316 4.68589699 -4.03735316 2.24839699 C-2.03735316 0.24839699 -2.03735316 0.24839699 0 0 Z " fill="#ED127C" transform="translate(167.03735315799713,252.7516030073166)"/>
<path d="M0 0 C6.45177825 4.7620268 9.00811145 8.84859768 10.29882812 16.76806641 C10.87911645 22.4067663 10.56714883 27.97657934 10.25 33.625 C10.16492188 35.41067383 10.16492188 35.41067383 10.078125 37.23242188 C9.93824824 40.13486463 9.78701809 43.03622352 9.625 45.9375 C6.325 45.9375 3.025 45.9375 -0.375 45.9375 C-0.37910889 45.02460205 -0.38321777 44.1117041 -0.38745117 43.17114258 C-0.41449402 39.76915222 -0.46363862 36.36894939 -0.52758789 32.9675293 C-0.55071993 31.49824053 -0.5651524 30.02878708 -0.57055664 28.55932617 C-0.57988279 26.44085655 -0.62094127 24.32495935 -0.66796875 22.20703125 C-0.6836792 20.93448486 -0.69938965 19.66193848 -0.71557617 18.35083008 C-1.53689441 14.09949715 -3.01956574 12.58969953 -6.375 9.9375 C-8.8251269 9.54589274 -8.8251269 9.54589274 -11.1875 10.125 C-11.97769531 10.26292969 -12.76789063 10.40085938 -13.58203125 10.54296875 C-14.17371094 10.67316406 -14.76539063 10.80335938 -15.375 10.9375 C-16.12777515 13.66999341 -16.54141703 16.21850683 -16.69140625 19.046875 C-16.75424805 20.17802734 -16.75424805 20.17802734 -16.81835938 21.33203125 C-16.85767578 22.10933594 -16.89699219 22.88664062 -16.9375 23.6875 C-17.00227539 24.87666016 -17.00227539 24.87666016 -17.06835938 26.08984375 C-17.17402991 28.03887815 -17.27497966 29.98816748 -17.375 31.9375 C-18.62796875 31.96328125 -19.8809375 31.9890625 -21.171875 32.015625 C-22.82295123 32.07191169 -24.47399155 32.1292589 -26.125 32.1875 C-26.95 32.20167969 -27.775 32.21585938 -28.625 32.23046875 C-33.61562709 32.4224256 -33.61562709 32.4224256 -37.921875 34.796875 C-39.92114833 37.74204109 -39.95627445 39.44985332 -39.375 42.9375 C-37.14293569 45.78530619 -35.82507001 46.78747666 -32.375 47.9375 C-30.49932623 48.03906134 -28.62032645 48.08322534 -26.74194336 48.09521484 C-25.58742172 48.10547699 -24.43290009 48.11573914 -23.24339294 48.12631226 C-21.37301109 48.13726425 -21.37301109 48.13726425 -19.46484375 48.1484375 C-16.84048841 48.1764922 -14.21613952 48.20515656 -11.59179688 48.234375 C-7.4416843 48.27690598 -3.29161314 48.31369053 0.85864258 48.33886719 C4.85519743 48.36376309 8.85131929 48.41219803 12.84765625 48.4609375 C14.09660172 48.46419037 15.34554718 48.46744324 16.63233948 48.47079468 C17.78370895 48.48736115 18.93507843 48.50392761 20.12133789 48.52099609 C21.13821182 48.52908295 22.15508575 48.5371698 23.20277405 48.54550171 C24.00210861 48.67486115 24.80144318 48.80422058 25.625 48.9375 C27.625 51.9375 27.625 51.9375 27.375 55.0625 C27.1275 56.01125 26.88 56.96 26.625 57.9375 C23.55966836 59.47016582 20.35745728 59.04026471 17 59 C16.29359375 58.99548828 15.5871875 58.99097656 14.859375 58.98632812 C13.11454725 58.97453875 11.369763 58.95660324 9.625 58.9375 C9.64594727 59.59758057 9.66689453 60.25766113 9.68847656 60.93774414 C9.77215393 63.95833818 9.82382229 66.97868759 9.875 70 C9.90851563 71.03833984 9.94203125 72.07667969 9.9765625 73.14648438 C10.07169062 80.63782414 9.20227602 85.03660732 4.02734375 90.6796875 C-1.98366658 95.32820216 -6.98373893 95.50034028 -14.375 94.9375 C-19.90050417 93.16516847 -23.00908238 89.48751893 -26.375 84.9375 C-28.20899567 81.26950866 -27.80988177 76.92060408 -28 72.875 C-28.07734375 71.47024414 -28.07734375 71.47024414 -28.15625 70.03710938 C-28.20007813 69.14701172 -28.24390625 68.25691406 -28.2890625 67.33984375 C-28.3298291 66.51991943 -28.3705957 65.69999512 -28.41259766 64.85522461 C-28.375 62.9375 -28.375 62.9375 -27.375 61.9375 C-25.68891034 61.86544489 -23.99999341 61.85363932 -22.3125 61.875 C-21.39339844 61.88402344 -20.47429687 61.89304687 -19.52734375 61.90234375 C-18.81707031 61.91394531 -18.10679688 61.92554688 -17.375 61.9375 C-17.36082031 63.10667969 -17.34664062 64.27585937 -17.33203125 65.48046875 C-17.28511562 67.02868457 -17.23686831 68.57686044 -17.1875 70.125 C-17.18169922 70.89392578 -17.17589844 71.66285156 -17.16992188 72.45507812 C-17.00613225 76.69540962 -16.70727867 78.50246624 -14.05078125 81.98046875 C-11.43924055 84.27533577 -11.43924055 84.27533577 -7.75 84.0625 C-4.34667525 83.25039929 -4.34667525 83.25039929 -2.67578125 80.94921875 C-0.87243833 76.77391128 -1.04924248 73.11659694 -1.1875 68.625 C-1.20103516 67.78904297 -1.21457031 66.95308594 -1.22851562 66.09179688 C-1.26368783 64.04008502 -1.31748952 61.98870725 -1.375 59.9375 C-2.39335938 59.9281543 -3.41171875 59.91880859 -4.4609375 59.90917969 C-8.2707758 59.86904381 -12.07982645 59.80322237 -15.88916016 59.72998047 C-17.53196019 59.70190669 -19.17489189 59.68062505 -20.81787109 59.66650391 C-23.19175973 59.64488379 -25.56408792 59.5981424 -27.9375 59.546875 C-28.66179199 59.54564636 -29.38608398 59.54441772 -30.13232422 59.54315186 C-36.1474178 59.37373941 -41.49556129 57.65882507 -45.94335938 53.45526123 C-50.47945483 48.21970276 -50.7834154 43.70431747 -50.71875 37.01953125 C-50.20149128 32.38183658 -48.51345009 29.33817046 -45.375 25.9375 C-39.55165151 21.30258998 -35.6762663 20.79709103 -28.375 20.9375 C-28.35373047 19.99390625 -28.35373047 19.99390625 -28.33203125 19.03125 C-27.96991136 12.53266604 -26.73403608 7.87698214 -22.375 2.9375 C-15.84172093 -2.39578904 -7.91617751 -2.49212996 0 0 Z " fill="#DD1F77" transform="translate(128.375,204.0625)"/>
<path d="M0 0 C1.56796987 0.00276538 1.56796987 0.00276538 3.16761589 0.00558662 C4.36517509 0.0028373 5.5627343 0.00008797 6.79658318 -0.00274467 C8.13053802 0.00433404 9.46449187 0.01160367 10.79844475 0.01904488 C12.19773666 0.01960879 13.59702916 0.01929282 14.99632072 0.01815987 C18.80191757 0.01758456 22.60738908 0.02936748 26.41295671 0.04330778 C30.38746479 0.05578564 34.36197553 0.05698331 38.33650017 0.0593586 C45.86589601 0.06558205 53.39523397 0.08200453 60.9246043 0.10205758 C69.49521708 0.12438971 78.06583259 0.13540324 86.63646722 0.14544845 C104.2697569 0.16637003 121.90299266 0.20156277 139.53623772 0.24609566 C139.20623772 0.90609566 138.87623772 1.56609566 138.53623772 2.24609566 C132.59623772 2.24609566 126.65623772 2.24609566 120.53623772 2.24609566 C120.53623772 2.90609566 120.53623772 3.56609566 120.53623772 4.24609566 C118.20690382 5.41076261 116.82882639 5.38304165 114.23359489 5.40431404 C113.33053108 5.41410286 112.42746727 5.42389168 111.49703789 5.43397713 C110.50369942 5.43973259 109.51036095 5.44548805 108.48692131 5.45141792 C106.92103516 5.46626732 106.92103516 5.46626732 105.32351494 5.4814167 C101.86059172 5.51309486 98.39765476 5.5378141 94.93467522 5.56250191 C92.53856352 5.58306598 90.1424555 5.6040623 87.74635124 5.62547493 C81.43018881 5.68075206 75.11399334 5.73013644 68.79777336 5.77832222 C62.35639812 5.8284961 55.91507105 5.8842036 49.47373772 5.93945503 C36.82794578 6.04710559 24.18211275 6.148723 11.53623772 6.24609566 C26.47369064 6.39684215 41.41119582 6.54194463 56.34873772 6.68359566 C57.51067524 6.69461689 58.67261276 6.70563812 59.86976051 6.71699333 C108.19549357 7.17352535 156.52183936 7.50393048 204.84873772 7.80859566 C205.72842232 7.81414514 206.60810693 7.81969462 207.51444864 7.82541227 C230.18836149 7.96839565 252.86229035 8.10869414 275.53623772 8.24609566 C275.20623772 6.26609566 274.87623772 4.28609566 274.53623772 2.24609566 C267.93623772 1.91609566 261.33623772 1.58609566 254.53623772 1.24609566 C254.53623772 0.91609566 254.53623772 0.58609566 254.53623772 0.24609566 C261.79623772 0.24609566 269.05623772 0.24609566 276.53623772 0.24609566 C278.53623772 5.24609566 278.53623772 5.24609566 277.83977318 8.01975441 C274.04033701 11.69186695 269.76203123 10.92718051 264.67967033 10.86755562 C263.54807975 10.87394444 262.41648917 10.88033326 261.25060797 10.88691568 C257.43856282 10.90224114 253.62754442 10.88165298 249.81553459 10.86133003 C247.09091472 10.86206566 244.36632912 10.87028772 241.64172173 10.87814522 C234.99749251 10.8926921 228.35356823 10.88041757 221.70936787 10.85903198 C213.97661781 10.83505372 206.2439381 10.83673438 198.51115912 10.83933789 C184.71655806 10.84303041 170.92210094 10.82218229 157.12754631 10.78808784 C143.73330357 10.75499496 130.33921192 10.74082926 116.94492912 10.74707222 C102.36946877 10.75383227 87.79407177 10.75138698 73.21862078 10.73171282 C72.44827337 10.73067333 71.67792596 10.72963385 70.8842347 10.72856286 C69.33690753 10.72647192 67.78958039 10.72436095 66.24225327 10.72222969 C60.84849776 10.71532648 55.45476174 10.71466604 50.06100273 10.71611214 C43.49033705 10.71755006 36.91979479 10.70789369 30.34917009 10.68416578 C26.99484398 10.67228421 23.64083587 10.66679119 20.28646851 10.67100334 C16.65504779 10.67469475 13.024164 10.66005164 9.3928051 10.64050484 C8.32579731 10.64583276 7.25878951 10.65116069 6.15944815 10.65665007 C5.19042452 10.64759343 4.2214009 10.63853679 3.22301292 10.6292057 C1.96497061 10.6268489 1.96497061 10.6268489 0.68151331 10.62444448 C-1.97119445 10.15660302 -2.86329485 9.38101101 -4.46376228 7.24609566 C-4.77626228 4.68359566 -4.77626228 4.68359566 -4.46376228 2.24609566 C-2.46376228 0.24609566 -2.46376228 0.24609566 0 0 Z " fill="#ED127B" transform="translate(167.4637622833252,252.75390434265137)"/>
<path d="M0 0 C6.45177825 4.7620268 9.00811145 8.84859768 10.29882812 16.76806641 C10.87911645 22.4067663 10.56714883 27.97657934 10.25 33.625 C10.16492188 35.41067383 10.16492188 35.41067383 10.078125 37.23242188 C9.93824824 40.13486463 9.78701809 43.03622352 9.625 45.9375 C6.325 45.9375 3.025 45.9375 -0.375 45.9375 C-0.37910889 45.02460205 -0.38321777 44.1117041 -0.38745117 43.17114258 C-0.41449402 39.76915222 -0.46363862 36.36894939 -0.52758789 32.9675293 C-0.55071993 31.49824053 -0.5651524 30.02878708 -0.57055664 28.55932617 C-0.57988279 26.44085655 -0.62094127 24.32495935 -0.66796875 22.20703125 C-0.6836792 20.93448486 -0.69938965 19.66193848 -0.71557617 18.35083008 C-1.53689441 14.09949715 -3.01956574 12.58969953 -6.375 9.9375 C-8.8251269 9.54589274 -8.8251269 9.54589274 -11.1875 10.125 C-11.97769531 10.26292969 -12.76789063 10.40085938 -13.58203125 10.54296875 C-14.17371094 10.67316406 -14.76539062 10.80335938 -15.375 10.9375 C-15.705 12.2575 -16.035 13.5775 -16.375 14.9375 C-17.365 14.9375 -18.355 14.9375 -19.375 14.9375 C-19.375 19.8875 -19.375 24.8375 -19.375 29.9375 C-23.995 29.9375 -28.615 29.9375 -33.375 29.9375 C-32.88 28.4525 -32.88 28.4525 -32.375 26.9375 C-30.395 26.9375 -28.415 26.9375 -26.375 26.9375 C-26.045 25.9475 -25.715 24.9575 -25.375 23.9375 C-26.035 23.6075 -26.695 23.2775 -27.375 22.9375 C-27.21515625 22.39996094 -27.0553125 21.86242187 -26.890625 21.30859375 C-26.2831782 18.51525885 -26.22583247 15.85571972 -26.125 13 C-25.80152331 8.84534622 -25.64391159 7.30351856 -23.125 3.875 C-15.55531716 -1.45818564 -9.08504703 -2.8601074 0 0 Z " fill="#E81876" transform="translate(128.375,204.0625)"/>
<path d="M0 0 C3.3 0 6.6 0 10 0 C10.10839074 3.68829602 10.18751031 7.37337651 10.25 11.0625 C10.30027344 12.62000977 10.30027344 12.62000977 10.3515625 14.20898438 C10.44669062 21.70032414 9.57727602 26.09910732 4.40234375 31.7421875 C-1.60866658 36.39070216 -6.60873893 36.56284028 -14 36 C-19.52550417 34.22766847 -22.63408238 30.55001893 -26 26 C-27.83399567 22.33200866 -27.43488177 17.98310408 -27.625 13.9375 C-27.6765625 13.00099609 -27.728125 12.06449219 -27.78125 11.09960938 C-27.82507813 10.20951172 -27.86890625 9.31941406 -27.9140625 8.40234375 C-27.9548291 7.58241943 -27.9955957 6.76249512 -28.03759766 5.91772461 C-28 4 -28 4 -27 3 C-25.31391034 2.92794489 -23.62499341 2.91613932 -21.9375 2.9375 C-21.01839844 2.94652344 -20.09929687 2.95554687 -19.15234375 2.96484375 C-18.44207031 2.97644531 -17.73179688 2.98804688 -17 3 C-16.98582031 4.16917969 -16.97164062 5.33835937 -16.95703125 6.54296875 C-16.91011562 8.09118457 -16.86186831 9.63936044 -16.8125 11.1875 C-16.80669922 11.95642578 -16.80089844 12.72535156 -16.79492188 13.51757812 C-16.63113225 17.75790962 -16.33227867 19.56496624 -13.67578125 23.04296875 C-11.06424055 25.33783577 -11.06424055 25.33783577 -7.375 25.125 C-3.97803546 24.31573828 -3.97803546 24.31573828 -2.33203125 22.04296875 C-0.46293394 17.77309543 -0.43297787 13.8035237 -0.3125 9.1875 C-0.27833984 8.30384766 -0.24417969 7.42019531 -0.20898438 6.50976562 C-0.12689567 4.34027833 -0.06176121 2.1701611 0 0 Z " fill="#52AEE4" transform="translate(128,263)"/>
<path d="M0 0 C2.64 0 5.28 0 8 0 C8 4.62 8 9.24 8 14 C12.29 14 16.58 14 21 14 C21 9.38 21 4.76 21 0 C23.64 0 26.28 0 29 0 C29 11.55 29 23.1 29 35 C26.36 35 23.72 35 21 35 C21 30.38 21 25.76 21 21 C16.71 21 12.42 21 8 21 C8 25.62 8 30.24 8 35 C5.36 35 2.72 35 0 35 C0 23.45 0 11.9 0 0 Z " fill="#CD2A75" transform="translate(168,210)"/>
<path d="M0 0 C0.66 0.33 1.32 0.66 2 1 C1.34 3.31 0.68 5.62 0 8 C91.74 8 183.48 8 278 8 C277.67 6.02 277.34 4.04 277 2 C270.4 1.67 263.8 1.34 257 1 C257 0.67 257 0.34 257 0 C264.26 0 271.52 0 279 0 C281 5 281 5 280.30353546 7.77365875 C276.5040993 11.44577129 272.22579351 10.68108485 267.14343262 10.62145996 C266.01184204 10.62784878 264.88025146 10.6342376 263.71437025 10.64082003 C259.9023251 10.65614549 256.09130671 10.63555732 252.27929688 10.61523438 C249.55467701 10.61597 246.8300914 10.62419206 244.10548401 10.63204956 C237.46125479 10.64659644 230.81733052 10.63432191 224.17313015 10.61293632 C216.44038009 10.58895806 208.70770039 10.59063872 200.97492141 10.59324223 C187.18032035 10.59693476 173.38586323 10.57608663 159.59130859 10.54199219 C146.19706585 10.5088993 132.80297421 10.49473361 119.40869141 10.50097656 C104.83323105 10.50773661 90.25783405 10.50529132 75.68238306 10.48561716 C74.91203565 10.48457768 74.14168825 10.48353819 73.34799698 10.4824672 C71.80066981 10.48037626 70.25334267 10.47826529 68.70601556 10.47613403 C63.31226004 10.46923082 57.91852402 10.46857039 52.52476501 10.47001648 C45.95409934 10.47145441 39.38355707 10.46179804 32.81293237 10.43807012 C29.45860626 10.42618855 26.10459816 10.42069553 22.75023079 10.42490768 C19.11881007 10.42859909 15.48792628 10.41395599 11.85656738 10.39440918 C10.78955959 10.39973711 9.72255179 10.40506503 8.62321043 10.41055441 C7.65418681 10.40149777 6.68516318 10.39244113 5.68677521 10.38311005 C4.4287329 10.38075324 4.4287329 10.38075324 3.14527559 10.37834883 C0.49256783 9.91050736 -0.39953256 9.13491535 -2 7 C-2.3125 4.4375 -2.3125 4.4375 -2 2 C-1.34 1.34 -0.68 0.68 0 0 Z " fill="#C83076" transform="translate(165,253)"/>
<path d="M0 0 C2.85190322 2.17022879 3.87989299 3.96439399 4.7890625 7.40625 C4.8303125 8.293125 4.8715625 9.18 4.9140625 10.09375 C2.2740625 10.09375 -0.3659375 10.09375 -3.0859375 10.09375 C-3.4159375 8.77375 -3.7459375 7.45375 -4.0859375 6.09375 C-8.22687448 5.88404441 -8.22687448 5.88404441 -12.0859375 7.09375 C-12.03972806 9.03523357 -12.03972806 9.03523357 -11.0859375 11.09375 C-8.42105606 12.5735767 -8.42105606 12.5735767 -5.2109375 13.65625 C1.87824771 16.26131204 1.87824771 16.26131204 3.9140625 19.09375 C4.49609375 21.21484375 4.49609375 21.21484375 4.7265625 23.53125 C4.81550781 24.29308594 4.90445312 25.05492187 4.99609375 25.83984375 C4.89994286 28.48170381 4.36863934 29.89540895 2.9140625 32.09375 C-1.94981921 34.81752376 -6.47375924 36.0734851 -12.0859375 35.09375 C-16.53723047 33.49222661 -19.43013196 32.0774583 -22.0859375 28.09375 C-22.2109375 25.40625 -22.2109375 25.40625 -22.0859375 23.09375 C-19.4459375 23.09375 -16.8059375 23.09375 -14.0859375 23.09375 C-13.4259375 24.41375 -12.7659375 25.73375 -12.0859375 27.09375 C-9.7759375 27.09375 -7.4659375 27.09375 -5.0859375 27.09375 C-4.7559375 25.77375 -4.4259375 24.45375 -4.0859375 23.09375 C-5.29830078 22.63935547 -5.29830078 22.63935547 -6.53515625 22.17578125 C-18.13268478 17.62910239 -18.13268478 17.62910239 -21.0859375 13.09375 C-22.05143964 8.74456145 -21.61454905 5.95046527 -19.2734375 2.15625 C-14.60905729 -2.2415942 -5.78468561 -2.51319675 0 0 Z " fill="#DA2378" transform="translate(331.0859375,210.90625)"/>
<path d="M0 0 C1.134375 0.020625 2.26875 0.04125 3.4375 0.0625 C3.4375 4.0225 3.4375 7.9825 3.4375 12.0625 C5.0153125 11.505625 5.0153125 11.505625 6.625 10.9375 C10.71518772 9.99876839 11.94207391 9.88966757 15.4375 12.0625 C18.20994949 14.88098648 19.35246254 16.48397743 19.93359375 20.4375 C19.91425781 21.63375 19.89492188 22.83 19.875 24.0625 C19.87371094 25.25875 19.87242187 26.455 19.87109375 27.6875 C19.41060449 31.27184887 18.56903858 33.18019783 16.4375 36.0625 C13.21669055 38.39481029 10.33092539 38.31101651 6.4375 38.0625 C5.4475 37.7325 4.4575 37.4025 3.4375 37.0625 C2.04310336 36.99584624 0.64580125 36.97711801 -0.75 37 C-2.008125 37.020625 -3.26625 37.04125 -4.5625 37.0625 C-4.5871501 31.95386104 -4.60533607 26.84525641 -4.61743164 21.73657227 C-4.62247204 19.99730832 -4.6293043 18.25804864 -4.63793945 16.51879883 C-4.65001792 14.02424063 -4.65573108 11.52973827 -4.66015625 9.03515625 C-4.66531754 8.25286148 -4.67047882 7.47056671 -4.67579651 6.66456604 C-4.67599226 4.79682886 -4.62449694 2.92920796 -4.5625 1.0625 C-3.5625 0.0625 -3.5625 0.0625 0 0 Z M5.4375 17.0625 C3.21697138 18.86849761 3.21697138 18.86849761 3.171875 21.375 C3.17703125 22.261875 3.1821875 23.14875 3.1875 24.0625 C3.18234375 24.949375 3.1771875 25.83625 3.171875 26.75 C3.21697138 29.25650239 3.21697138 29.25650239 5.4375 31.0625 C8.02104218 31.22937448 8.02104218 31.22937448 10.4375 31.0625 C12.66282845 26.74274478 12.50183568 23.76331591 11.4375 19.0625 C10.7775 18.4025 10.1175 17.7425 9.4375 17.0625 C8.1175 17.0625 6.7975 17.0625 5.4375 17.0625 Z " fill="#DB207A" transform="translate(399.5625,207.9375)"/>
<path d="M0 0 C1.134375 0.020625 2.26875 0.04125 3.4375 0.0625 C3.7675 4.0225 4.0975 7.9825 4.4375 12.0625 C6.0153125 11.505625 6.0153125 11.505625 7.625 10.9375 C11.4375 10.0625 11.4375 10.0625 14.1875 10.5 C17.3493398 12.69572208 18.40521221 15.46707429 19.4375 19.0625 C19.77154635 22.22296106 19.72472512 25.32669542 19.625 28.5 C19.60469727 29.74040039 19.60469727 29.74040039 19.58398438 31.00585938 C19.54896992 33.0250264 19.49517562 35.04385318 19.4375 37.0625 C16.7975 37.0625 14.1575 37.0625 11.4375 37.0625 C11.1075 31.1225 10.7775 25.1825 10.4375 19.0625 C8.7875 18.7325 7.1375 18.4025 5.4375 18.0625 C3.92328999 19.57671001 4.22440144 20.98722768 4.12109375 23.09765625 C4.07919922 23.90654297 4.03730469 24.71542969 3.99414062 25.54882812 C3.95482422 26.39896484 3.91550781 27.24910156 3.875 28.125 C3.83181641 28.97900391 3.78863281 29.83300781 3.74414062 30.71289062 C3.63773298 32.82922037 3.53708269 34.94583813 3.4375 37.0625 C0.7975 37.0625 -1.8425 37.0625 -4.5625 37.0625 C-4.5871501 31.95386104 -4.60533607 26.84525641 -4.61743164 21.73657227 C-4.62247204 19.99730832 -4.6293043 18.25804864 -4.63793945 16.51879883 C-4.65001792 14.02424063 -4.65573108 11.52973827 -4.66015625 9.03515625 C-4.66531754 8.25286148 -4.67047882 7.47056671 -4.67579651 6.66456604 C-4.67599226 4.79682886 -4.62449694 2.92920796 -4.5625 1.0625 C-3.5625 0.0625 -3.5625 0.0625 0 0 Z " fill="#EA1176" transform="translate(286.5625,207.9375)"/>
<path d="M0 0 C2.71752037 2.96241682 3.39027705 5.00108739 3.51171875 8.984375 C3.56489258 10.38623047 3.56489258 10.38623047 3.61914062 11.81640625 C3.64169922 12.78449219 3.66425781 13.75257813 3.6875 14.75 C3.73874023 16.22533203 3.73874023 16.22533203 3.79101562 17.73046875 C3.87335273 20.15353199 3.94254838 22.57623998 4 25 C3.37351563 24.98839844 2.74703125 24.97679687 2.1015625 24.96484375 C0.87566406 24.95130859 0.87566406 24.95130859 -0.375 24.9375 C-1.59316406 24.92009766 -1.59316406 24.92009766 -2.8359375 24.90234375 C-5.04937142 24.85533666 -5.04937142 24.85533666 -7 26 C-11.0624856 26.38325336 -13.3179513 26.40033293 -16.875 24.3125 C-19.27057253 21.70555342 -19.91423179 20.51649667 -20 17 C-19.22851631 13.75976852 -18.41480706 12.35380602 -15.875 10.1875 C-12.02507023 8.59731162 -9.14686216 8.7891426 -5 9 C-5.33 8.01 -5.66 7.02 -6 6 C-9.29075996 6.37904208 -9.29075996 6.37904208 -12 8 C-13.99958364 8.04080783 -16.00045254 8.04254356 -18 8 C-18.8125 6.3125 -18.8125 6.3125 -19 4 C-16.82197524 1.24543927 -15.0135511 -0.57768704 -11.75 -1.9375 C-7.70820123 -2.02935906 -3.75255066 -1.5530219 0 0 Z M-10 14 C-10.66 15.32 -11.32 16.64 -12 18 C-10.02 18.99 -10.02 18.99 -8 20 C-7.01 19.34 -6.02 18.68 -5 18 C-5 16.68 -5 15.36 -5 14 C-6.65 14 -8.3 14 -10 14 Z " fill="#DA2174" transform="translate(246,220)"/>
<path d="M0 0 C3.11905047 2.57660691 4.7181368 4.1544104 6 8 C6 10.64 6 13.28 6 16 C0.72 16 -4.56 16 -10 16 C-9.34 16.99 -8.68 17.98 -8 19 C-4.70275206 19.24424059 -1.8888142 19.24022005 1.3125 18.375 C1.869375 18.25125 2.42625 18.1275 3 18 C3.66 18.66 4.32 19.32 5 20 C4.9375 21.9375 4.9375 21.9375 4 24 C0.5600433 26.91875114 -2.52023761 27.47990007 -7.0078125 27.28515625 C-11.20322477 26.68463645 -14.00747219 25.05869633 -16.875 22 C-18.94537375 16.47900333 -19.02366496 10.4567959 -16.75 5 C-11.73092743 -0.73608294 -7.43226433 -1.82546843 0 0 Z M-8 6 C-8.66 7.32 -9.32 8.64 -10 10 C-7.36 10 -4.72 10 -2 10 C-2.66 8.68 -3.32 7.36 -4 6 C-5.32 6 -6.64 6 -8 6 Z " fill="#D82779" transform="translate(440,219)"/>
<path d="M0 0 C2.25744032 4.33428541 2.30285644 8.13168319 2.5625 13 C-2.7175 13 -7.9975 13 -13.4375 13 C-12.7775 13.99 -12.1175 14.98 -11.4375 16 C-7.58630946 16.28527337 -4.12757882 16.18082522 -0.4375 15 C0.2225 16.65 0.8825 18.3 1.5625 20 C-3.08352706 23.68478008 -6.49624356 24.40279705 -12.4375 24 C-17.22575425 22.25044556 -19.21408533 20.54322015 -21.4375 16 C-21.8359375 13.0625 -21.8359375 13.0625 -21.8125 10 C-21.82023438 8.989375 -21.82796875 7.97875 -21.8359375 6.9375 C-21.37967323 3.57366931 -20.4465766 1.71649794 -18.4375 -1 C-12.29232022 -5.09678652 -5.72194881 -4.69493235 0 0 Z M-11.4375 3 C-12.0975 4.32 -12.7575 5.64 -13.4375 7 C-10.7975 7 -8.1575 7 -5.4375 7 C-6.0975 5.68 -6.7575 4.36 -7.4375 3 C-8.7575 3 -10.0775 3 -11.4375 3 Z " fill="#DD2076" transform="translate(222.4375,222)"/>
<path d="M0 0 C2.5 2.375 2.5 2.375 4 5 C4 6.32 4 7.64 4 9 C0.625 9.1875 0.625 9.1875 -3 9 C-3.66 8.01 -4.32 7.02 -5 6 C-6.65 6.33 -8.3 6.66 -10 7 C-11.02703748 12.55493924 -11.02703748 12.55493924 -10 18 C-7.58354218 18.16687448 -7.58354218 18.16687448 -5 18 C-4.34 17.34 -3.68 16.68 -3 16 C0.625 15.875 0.625 15.875 4 16 C3.52153935 20.30614589 2.34073619 22.24880549 -1 25 C-4.61930698 26.20643566 -7.19231005 26.32268559 -11 26 C-15.00876493 23.88216193 -17.37375513 22.23269214 -19 18 C-19.66457538 12.45156834 -19.66190388 7.535617 -17.4375 2.375 C-12.30653869 -2.6243982 -6.29205654 -2.9071758 0 0 Z " fill="#DC2178" transform="translate(358,220)"/>
<path d="M0 0 C1.37478516 0.01740234 1.37478516 0.01740234 2.77734375 0.03515625 C3.69644531 0.04417969 4.61554688 0.05320312 5.5625 0.0625 C6.27277344 0.07410156 6.98304687 0.08570313 7.71484375 0.09765625 C7.76382813 1.29003906 7.8128125 2.48242188 7.86328125 3.7109375 C7.93831979 5.27736693 8.01386715 6.84377204 8.08984375 8.41015625 C8.12078125 9.19583984 8.15171875 9.98152344 8.18359375 10.79101562 C8.22226563 11.54833984 8.2609375 12.30566406 8.30078125 13.0859375 C8.33220215 13.78243408 8.36362305 14.47893066 8.39599609 15.1965332 C8.63602628 17.42298364 8.63602628 17.42298364 10.71484375 20.09765625 C10.83984375 22.78515625 10.83984375 22.78515625 10.71484375 25.09765625 C13.68484375 24.76765625 16.65484375 24.43765625 19.71484375 24.09765625 C20.37484375 25.74765625 21.03484375 27.39765625 21.71484375 29.09765625 C16.69782598 32.04320845 11.34753412 32.21537027 5.71484375 31.09765625 C2.106235 28.4064904 -0.28302085 25.10192705 -2.28515625 21.09765625 C-2.64633304 17.75497706 -2.75235984 14.39297107 -2.91015625 11.03515625 C-2.96171875 10.09865234 -3.01328125 9.16214844 -3.06640625 8.19726562 C-3.11023438 7.30716797 -3.1540625 6.41707031 -3.19921875 5.5 C-3.23998535 4.68007568 -3.28075195 3.86015137 -3.32275391 3.01538086 C-3.26689967 0.16645218 -2.83419148 0.12111929 0 0 Z " fill="#54ADE2" transform="translate(103.28515625,265.90234375)"/>
<path d="M0 0 C1.32 0 2.64 0 4 0 C4.66 1.65 5.32 3.3 6 5 C6.33 4.01 6.66 3.02 7 2 C8.65 2 10.3 2 12 2 C12 3.32 12 4.64 12 6 C13.98491642 5.73323796 13.98491642 5.73323796 16 5 C16.33 4.01 16.66 3.02 17 2 C48.07423581 0.3580786 48.07423581 0.3580786 53 2 C53.33 1.67 53.66 1.34 54 1 C59.8410596 0.62913907 59.8410596 0.62913907 62 1 C64 4 64 4 64 8 C56.34192785 8.04629168 48.68387016 8.08185303 41.02569008 8.10362434 C37.46987601 8.11407224 33.9141575 8.12824959 30.35839844 8.15087891 C26.272777 8.17671832 22.18725631 8.18646444 18.1015625 8.1953125 C16.82133209 8.20563507 15.54110168 8.21595764 14.22207642 8.22659302 C12.45046646 8.22681961 12.45046646 8.22681961 10.64306641 8.22705078 C9.07753525 8.23371262 9.07753525 8.23371262 7.4803772 8.24050903 C5 8 5 8 3 6 C1.68252676 5.30251417 0.35085807 4.63040043 -1 4 C-0.67 2.68 -0.34 1.36 0 0 Z " fill="#ED127C" transform="translate(89,253)"/>
<path d="M0 0 C2.64 0 5.28 0 8 0 C8 1.98 8 3.96 8 6 C9.32 6 10.64 6 12 6 C12 7.98 12 9.96 12 12 C10.68 12 9.36 12 8 12 C8 16.62 8 21.24 8 26 C9.32 26 10.64 26 12 26 C12.04254356 27.99954746 12.04080783 30.00041636 12 32 C11 33 11 33 7.6875 33.3125 C4 33 4 33 1.78515625 31.52734375 C-0.82633688 27.83010949 -0.43999997 24.65653767 -0.25 20.25 C-0.23195313 19.45722656 -0.21390625 18.66445312 -0.1953125 17.84765625 C-0.14833082 15.89791652 -0.07659044 13.94880122 0 12 C-1.32 12 -2.64 12 -4 12 C-4 10.02 -4 8.04 -4 6 C-2.68 6 -1.36 6 0 6 C0 4.02 0 2.04 0 0 Z " fill="#EA147B" transform="translate(268,213)"/>
<path d="M0 0 C1.98 0.99 1.98 0.99 4 2 C4.33 1.34 4.66 0.68 5 0 C5.66 0 6.32 0 7 0 C7.09796875 0.68707031 7.1959375 1.37414062 7.296875 2.08203125 C7.52117187 3.43361328 7.52117187 3.43361328 7.75 4.8125 C7.88921875 5.70582031 8.0284375 6.59914062 8.171875 7.51953125 C9.168841 10.50572658 10.3582435 11.38380344 13 13 C12.01 13 11.02 13 10 13 C10 14.32 10 15.64 10 17 C13.57208599 19.89489944 16.46784553 20.38402404 20.98364258 20.43237305 C22.16448929 20.45216721 23.345336 20.47196136 24.56196594 20.49235535 C25.82671249 20.49874527 27.09145905 20.50513519 28.39453125 20.51171875 C30.34826912 20.53864555 30.34826912 20.53864555 32.34147644 20.56611633 C35.7920939 20.61350911 39.24264646 20.64338725 42.69348145 20.66955566 C46.21961276 20.69941575 49.74552072 20.74592722 53.27148438 20.79101562 C60.1808621 20.87692625 67.09031428 20.94432567 74 21 C73.505 17.535 73.505 17.535 73 14 C73.99 14 74.98 14 76 14 C76.6875 16.8125 76.6875 16.8125 77 20 C75.44291608 22.19045221 74.47259177 22.9024642 71.828125 23.44824219 C70.97734375 23.48079102 70.1265625 23.51333984 69.25 23.546875 C68.26563965 23.5878833 67.2812793 23.6288916 66.26708984 23.67114258 C65.1889502 23.69716553 64.11081055 23.72318848 63 23.75 C61.87674316 23.78311279 60.75348633 23.81622559 59.59619141 23.8503418 C50.29835636 24.06419326 40.99979062 24.03605751 31.70166016 23.85583496 C30.16139298 23.82714688 28.62100731 23.80419629 27.08056641 23.78723145 C10.16244678 23.57322917 10.16244678 23.57322917 3.37646484 17.56176758 C-0.79814552 12.82516196 -0.24178252 5.92367185 0 0 Z " fill="#EA147A" transform="translate(79,240)"/>
<path d="M0 0 C1.8125 1.5625 1.8125 1.5625 3 3 C2.34 3 1.68 3 1 3 C2.25541557 5.51083114 3.50063488 5.87125446 6 7 C5.67 7.99 5.34 8.98 5 10 C4.01 9.67 3.02 9.34 2 9 C2 8.34 2 7.68 2 7 C-1.96 7.99 -5.92 8.98 -10 10 C-10.33 11.32 -10.66 12.64 -11 14 C-11.99 14 -12.98 14 -14 14 C-14 18.95 -14 23.9 -14 29 C-18.62 29 -23.24 29 -28 29 C-27.505 27.515 -27.505 27.515 -27 26 C-25.02 26 -23.04 26 -21 26 C-20.67 25.01 -20.34 24.02 -20 23 C-20.66 22.67 -21.32 22.34 -22 22 C-21.76990234 21.17242187 -21.76990234 21.17242187 -21.53515625 20.328125 C-20.95329729 17.79682617 -20.67564555 15.33558028 -20.4375 12.75 C-20.35371094 11.85796875 -20.26992187 10.9659375 -20.18359375 10.046875 C-20.12300781 9.37140625 -20.06242187 8.6959375 -20 8 C-19.01 7.67 -18.02 7.34 -17 7 C-15.62804426 5.70644173 -14.28817344 4.37701298 -13 3 C-12.67 3.66 -12.34 4.32 -12 5 C-11.95875 4.38125 -11.9175 3.7625 -11.875 3.125 C-11 1 -11 1 -8.25 -0.3125 C-4.93109613 -1.01457582 -3.17477277 -1.1154607 0 0 Z " fill="#EC147C" transform="translate(123,205)"/>
<path d="M0 0 C2.31 0 4.62 0 7 0 C8 1 8 1 8.11352539 4.41821289 C8.11336628 5.93636988 8.10767226 7.45453229 8.09765625 8.97265625 C8.0962413 9.77029892 8.09482635 10.56794159 8.09336853 11.38975525 C8.08775316 13.94737435 8.07519812 16.50490718 8.0625 19.0625 C8.05748698 20.79231645 8.05292373 22.52213426 8.04882812 24.25195312 C8.03777875 28.50133553 8.02050386 32.75065312 8 37 C5.36 37 2.72 37 0 37 C0 24.79 0 12.58 0 0 Z " fill="#DD237A" transform="translate(254,208)"/>
<path d="M0 0 C2.85190322 2.17022879 3.87989299 3.96439399 4.7890625 7.40625 C4.8303125 8.293125 4.8715625 9.18 4.9140625 10.09375 C2.2740625 10.09375 -0.3659375 10.09375 -3.0859375 10.09375 C-3.4159375 8.77375 -3.7459375 7.45375 -4.0859375 6.09375 C-8.22687448 5.88404441 -8.22687448 5.88404441 -12.0859375 7.09375 C-12.03972806 9.03523357 -12.03972806 9.03523357 -11.0859375 11.09375 C-8.42105606 12.5735767 -8.42105606 12.5735767 -5.2109375 13.65625 C1.87824771 16.26131204 1.87824771 16.26131204 3.9140625 19.09375 C4.49609375 21.21484375 4.49609375 21.21484375 4.7265625 23.53125 C4.81550781 24.29308594 4.90445312 25.05492187 4.99609375 25.83984375 C4.90000612 28.47996568 4.35173027 29.8880773 2.9140625 32.09375 C-0.0859375 34.09375 -0.0859375 34.09375 -3.0859375 34.09375 C-3.0859375 33.10375 -3.0859375 32.11375 -3.0859375 31.09375 C-1.7659375 31.09375 -0.4459375 31.09375 0.9140625 31.09375 C0.9140625 30.10375 0.9140625 29.11375 0.9140625 28.09375 C1.5740625 27.76375 2.2340625 27.43375 2.9140625 27.09375 C2.4034084 22.62552665 1.26773949 20.12802918 -2.0859375 17.09375 C-4.91567517 16.19375947 -7.71044996 15.53134476 -10.625 14.96484375 C-13.0859375 14.09375 -13.0859375 14.09375 -14.421875 12.19140625 C-15.0859375 10.09375 -15.0859375 10.09375 -15.0859375 7.09375 C-16.7359375 7.42375 -18.3859375 7.75375 -20.0859375 8.09375 C-20.0859375 9.41375 -20.0859375 10.73375 -20.0859375 12.09375 C-19.4259375 12.09375 -18.7659375 12.09375 -18.0859375 12.09375 C-18.4159375 13.08375 -18.7459375 14.07375 -19.0859375 15.09375 C-21.0859375 13.09375 -21.0859375 13.09375 -21.4609375 9.28125 C-21.38401221 6.02671846 -21.06529815 5.06030001 -19.2734375 2.15625 C-14.60905729 -2.2415942 -5.78468561 -2.51319675 0 0 Z " fill="#DC2375" transform="translate(331.0859375,210.90625)"/>
<path d="M0 0 C0 2.31 0 4.62 0 7 C-2.31 7.33 -4.62 7.66 -7 8 C-7 13.94 -7 19.88 -7 26 C-9.64 26 -12.28 26 -15 26 C-15 17.42 -15 8.84 -15 0 C-12 0 -9 0 -6 0 C-3 -1 -3 -1 0 0 Z " fill="#DB237A" transform="translate(380,219)"/>
<path d="M0 0 C0.99 0 1.98 0 3 0 C3.33 3.63 3.66 7.26 4 11 C7.3 10.67 10.6 10.34 14 10 C14.45375 11.134375 14.9075 12.26875 15.375 13.4375 C16.57095806 17.04721692 16.57095806 17.04721692 19 18 C19 20.97 19 23.94 19 27 C17.68 26.67 16.36 26.34 15 26 C14.86722656 25.37351563 14.73445313 24.74703125 14.59765625 24.1015625 C14.33275391 22.87566406 14.33275391 22.87566406 14.0625 21.625 C13.88847656 20.81289062 13.71445312 20.00078125 13.53515625 19.1640625 C13.07669307 16.970537 13.07669307 16.970537 12 15 C9.36 15 6.72 15 4 15 C4 14.34 4 13.68 4 13 C3.34 13 2.68 13 2 13 C2 12.34 2 11.68 2 11 C1.34 11 0.68 11 0 11 C0 12.32 0 13.64 0 15 C0.99 15.33 1.98 15.66 3 16 C2.979375 16.845625 2.95875 17.69125 2.9375 18.5625 C3.00216232 22.11892777 3.4385496 25.49093503 4 29 C4.99 29 5.98 29 7 29 C7 29.66 7 30.32 7 31 C9.64 31 12.28 31 15 31 C14.01 33.475 14.01 33.475 13 36 C8.38 35.34 3.76 34.68 -1 34 C-1.02465288 29.31860746 -1.04283739 24.63725241 -1.05493164 19.95581055 C-1.05997157 18.36205386 -1.0668035 16.76830181 -1.07543945 15.17456055 C-1.08751999 12.88849747 -1.09323155 10.60249533 -1.09765625 8.31640625 C-1.10281754 7.59973282 -1.10797882 6.88305939 -1.11329651 6.14466858 C-1.11349263 4.42936328 -1.06192007 2.71418734 -1 1 C-0.67 0.67 -0.34 0.34 0 0 Z " fill="#EC137B" transform="translate(398,209)"/>
<path d="M0 0 C3.1349821 5.52936063 3.38418742 10.17880555 3.1875 16.4375 C3.16719727 17.67790039 3.16719727 17.67790039 3.14648438 18.94335938 C3.11146992 20.9625264 3.05767562 22.98135318 3 25 C0.36 25 -2.28 25 -5 25 C-5.33 19.06 -5.66 13.12 -6 7 C-7.65 6.67 -9.3 6.34 -11 6 C-12.51421001 7.51421001 -12.21309856 8.92472768 -12.31640625 11.03515625 C-12.35830078 11.84404297 -12.40019531 12.65292969 -12.44335938 13.48632812 C-12.48267578 14.33646484 -12.52199219 15.18660156 -12.5625 16.0625 C-12.60568359 16.91650391 -12.64886719 17.77050781 -12.69335938 18.65039062 C-12.79976702 20.76672037 -12.90041731 22.88333813 -13 25 C-15.64 25 -18.28 25 -21 25 C-20.67 23.68 -20.34 22.36 -20 21 C-19.67 21.66 -19.34 22.32 -19 23 C-16.47266765 23.65555119 -16.47266765 23.65555119 -14 24 C-14.02320313 22.73542969 -14.04640625 21.47085938 -14.0703125 20.16796875 C-14.08907126 18.5078184 -14.10727135 16.84766167 -14.125 15.1875 C-14.14175781 14.35412109 -14.15851563 13.52074219 -14.17578125 12.66210938 C-14.18222656 11.85966797 -14.18867188 11.05722656 -14.1953125 10.23046875 C-14.20578613 9.49207764 -14.21625977 8.75368652 -14.22705078 7.99291992 C-14 6 -14 6 -12 3 C-8.875 2.8125 -8.875 2.8125 -6 3 C-5.34 4.65 -4.68 6.3 -4 8 C-2.68 8 -1.36 8 0 8 C-0.33 6.35 -0.66 4.7 -1 3 C-4.63 2.34 -8.26 1.68 -12 1 C-11 -1 -11 -1 -9.375 -1.75 C-5.7185193 -2.13489271 -3.36379324 -1.46783705 0 0 Z " fill="#E61777" transform="translate(303,220)"/>
<path d="M0 0 C1.98 0 3.96 0 6 0 C6 10.56 6 21.12 6 32 C4.68 32 3.36 32 2 32 C1.67 27.71 1.34 23.42 1 19 C-2.96 18.67 -6.92 18.34 -11 18 C-11 17.01 -11 16.02 -11 15 C-7.7 14.34 -4.4 13.68 -1 13 C-0.67 8.71 -0.34 4.42 0 0 Z " fill="#EB137A" transform="translate(189,211)"/>
<path d="M0 0 C2.64 0 5.28 0 8 0 C8 8.58 8 17.16 8 26 C5.36 26 2.72 26 0 26 C0 17.42 0 8.84 0 0 Z " fill="#DA2179" transform="translate(383,219)"/>
<path d="M0 0 C1.98 0 3.96 0 6 0 C6 10.56 6 21.12 6 32 C3.03 32.495 3.03 32.495 0 33 C0 22.11 0 11.22 0 0 Z " fill="#EA1479" transform="translate(169,211)"/>
<path d="M0 0 C46.2 0 92.4 0 140 0 C139.67 0.66 139.34 1.32 139 2 C138.08917915 1.99666908 138.08917915 1.99666908 137.15995789 1.99327087 C130.84989001 1.97117688 124.53983309 1.95607613 118.22973633 1.94506836 C115.873612 1.94003425 113.5174908 1.93320654 111.16137695 1.92456055 C107.7781497 1.9124547 104.39496368 1.90676251 101.01171875 1.90234375 C99.95538742 1.89718246 98.89905609 1.89202118 97.81071472 1.88670349 C96.33952934 1.88659019 96.33952934 1.88659019 94.83862305 1.88647461 C93.97480515 1.884254 93.11098724 1.88203339 92.22099304 1.87974548 C89.82540879 1.91126684 89.82540879 1.91126684 87 3 C87 2.34 87 1.68 87 1 C85.68 1 84.36 1 83 1 C83 1.66 83 2.32 83 3 C79.7 2.34 76.4 1.68 73 1 C73 1.66 73 2.32 73 3 C72.319375 2.835 71.63875 2.67 70.9375 2.5 C66.500219 1.74471813 62.36633318 1.74904084 57.9375 2.5625 C54.63537038 3.05430654 52.2657268 2.65314536 49 2 C46.33639901 1.63809769 43.66882025 1.322099 41 1 C41 1.66 41 2.32 41 3 C40.34 3 39.68 3 39 3 C39 2.34 39 1.68 39 1 C25.8 1.33 12.6 1.66 -1 2 C-0.67 1.34 -0.34 0.68 0 0 Z " fill="#E81674" transform="translate(167,253)"/>
<path d="M0 0 C2.0625 0.4375 2.0625 0.4375 4 1 C4 1.66 4 2.32 4 3 C4.99 3.33 5.98 3.66 7 4 C11.02932794 8.02932794 11 8.87305181 11 15 C6.05 15.33 1.1 15.66 -4 16 C-4 17.65 -4 19.3 -4 21 C-4.99 21.33 -5.98 21.66 -7 22 C-7.66 21.67 -8.32 21.34 -9 21 C-9 16.71 -9 12.42 -9 8 C-7.68 8.33 -6.36 8.66 -5 9 C-4.67 9.99 -4.34 10.98 -4 12 C-0.7 12.33 2.6 12.66 6 13 C6 11.02 6 9.04 6 7 C3.36 6.67 0.72 6.34 -2 6 C-1.125 1.125 -1.125 1.125 0 0 Z " fill="#EA147D" transform="translate(212,218)"/>
<path d="M0 0 C33.99 0 67.98 0 103 0 C102.67 0.66 102.34 1.32 102 2 C74.72151899 2 74.72151899 2 70.8125 1.96484375 C69.20833419 1.95557877 67.60416749 1.94646899 66 1.9375 C65.19304687 1.92912109 64.38609375 1.92074219 63.5546875 1.91210938 C62.77351563 1.90888672 61.99234375 1.90566406 61.1875 1.90234375 C60.47980469 1.89710693 59.77210938 1.89187012 59.04296875 1.88647461 C56.95215731 1.93564229 56.95215731 1.93564229 54.80078125 2.56860352 C54.20652344 2.71096436 53.61226563 2.8533252 53 3 C52.505 2.505 52.505 2.505 52 2 C49.78830244 1.89939927 47.57335843 1.86918105 45.359375 1.8671875 C44.68134827 1.86623077 44.00332153 1.86527405 43.30474854 1.86428833 C41.85876371 1.86360558 40.41277587 1.86546643 38.96679688 1.86962891 C36.80070646 1.87487714 34.63483303 1.86973975 32.46875 1.86328125 C23.93439987 1.85960202 15.5037349 2.19161117 7 3 C7 2.34 7 1.68 7 1 C6.34 1 5.68 1 5 1 C5 1.66 5 2.32 5 3 C2.525 2.01 2.525 2.01 0 1 C0 0.67 0 0.34 0 0 Z " fill="#E21874" transform="translate(311,253)"/>
<path d="M0 0 C1.134375 0.020625 2.26875 0.04125 3.4375 0.0625 C3.4375 4.0225 3.4375 7.9825 3.4375 12.0625 C5.7475 11.4025 8.0575 10.7425 10.4375 10.0625 C9.25 11.5625 9.25 11.5625 7.4375 13.0625 C4.8125 13.3125 4.8125 13.3125 2.4375 13.0625 C1.4375 12.0625 1.4375 12.0625 1.33984375 9.55859375 C1.35144531 8.54925781 1.36304688 7.53992188 1.375 6.5 C1.38402344 5.48808594 1.39304687 4.47617188 1.40234375 3.43359375 C1.41394531 2.65113281 1.42554688 1.86867187 1.4375 1.0625 C0.4475 1.3925 -0.5425 1.7225 -1.5625 2.0625 C-1.8925 12.9525 -2.2225 23.8425 -2.5625 35.0625 C0.4075 35.0625 3.3775 35.0625 6.4375 35.0625 C7.7575 35.3925 9.0775 35.7225 10.4375 36.0625 C10.4375 35.7325 10.4375 35.4025 10.4375 35.0625 C12.0875 35.0625 13.7375 35.0625 15.4375 35.0625 C15.7675 33.7425 16.0975 32.4225 16.4375 31.0625 C16.7675 32.3825 17.0975 33.7025 17.4375 35.0625 C13.60278214 37.76935967 11.11698007 38.46941131 6.4375 38.0625 C5.4475 37.7325 4.4575 37.4025 3.4375 37.0625 C2.04310336 36.99584624 0.64580125 36.97711801 -0.75 37 C-2.008125 37.020625 -3.26625 37.04125 -4.5625 37.0625 C-4.5871501 31.95386104 -4.60533607 26.84525641 -4.61743164 21.73657227 C-4.62247204 19.99730832 -4.6293043 18.25804864 -4.63793945 16.51879883 C-4.65001792 14.02424063 -4.65573108 11.52973827 -4.66015625 9.03515625 C-4.66531754 8.25286148 -4.67047882 7.47056671 -4.67579651 6.66456604 C-4.67599226 4.79682886 -4.62449694 2.92920796 -4.5625 1.0625 C-3.5625 0.0625 -3.5625 0.0625 0 0 Z " fill="#CA2C75" transform="translate(399.5625,207.9375)"/>
<path d="M0 0 C1.99954746 -0.04254356 4.00041636 -0.04080783 6 0 C7 1 7 1 7.11352539 2.76586914 C7.10828857 3.51473389 7.10305176 4.26359863 7.09765625 5.03515625 C7.09282227 6.24848633 7.09282227 6.24848633 7.08789062 7.48632812 C7.07951172 8.33646484 7.07113281 9.18660156 7.0625 10.0625 C7.05798828 10.91650391 7.05347656 11.77050781 7.04882812 12.65039062 C7.03700373 14.76695663 7.01906769 16.88348685 7 19 C6.01 19 5.02 19 4 19 C4 20.32 4 21.64 4 23 C3.01 23 2.02 23 1 23 C-0.2263757 20.54724859 -0.11415314 18.9494219 -0.09765625 16.2109375 C-0.09443359 15.26992187 -0.09121094 14.32890625 -0.08789062 13.359375 C-0.07951172 12.37453125 -0.07113281 11.3896875 -0.0625 10.375 C-0.05798828 9.38242188 -0.05347656 8.38984375 -0.04882812 7.3671875 C-0.03702145 4.9113984 -0.020554 2.45572896 0 0 Z " fill="#EC127C" transform="translate(129,221)"/>
<path d="M0 0 C1.44246094 -0.02126953 1.44246094 -0.02126953 2.9140625 -0.04296875 C5.375 0.1875 5.375 0.1875 7.375 2.1875 C7.60205078 4.25048828 7.60205078 4.25048828 7.5703125 6.7578125 C7.56386719 7.65371094 7.55742187 8.54960937 7.55078125 9.47265625 C7.53402344 10.40980469 7.51726562 11.34695312 7.5 12.3125 C7.49097656 13.25738281 7.48195312 14.20226562 7.47265625 15.17578125 C7.44904668 17.51312827 7.41317494 19.85034549 7.375 22.1875 C4.405 22.1875 1.435 22.1875 -1.625 22.1875 C-0.305 21.5275 1.015 20.8675 2.375 20.1875 C2.84088547 17.36232275 3.07115501 14.89670439 3.125 12.0625 C3.15464844 11.30839844 3.18429688 10.55429688 3.21484375 9.77734375 C3.28557932 7.91464047 3.33254983 6.05106245 3.375 4.1875 C1.065 3.8575 -1.245 3.5275 -3.625 3.1875 C-3.625 3.8475 -3.625 4.5075 -3.625 5.1875 C-5.935 5.5175 -8.245 5.8475 -10.625 6.1875 C-10.295 4.5375 -9.965 2.8875 -9.625 1.1875 C-6.37294841 0.22421457 -3.38614248 0.02281767 0 0 Z " fill="#EC137A" transform="translate(239.625,220.8125)"/>
<path d="M0 0 C19.47 0 38.94 0 59 0 C59 0.99 59 1.98 59 3 C58.505 2.505 58.505 2.505 58 2 C52.82264323 1.62947661 52.82264323 1.62947661 48 3 C46.33253534 2.67068179 44.66604148 2.33644417 43 2 C40.65088585 1.91971054 38.29968331 1.89234177 35.94921875 1.90234375 C34.96100883 1.90446617 34.96100883 1.90446617 33.95283508 1.90663147 C31.86434238 1.912195 29.77595989 1.92474053 27.6875 1.9375 C26.26497551 1.94251972 24.84244934 1.9470818 23.41992188 1.95117188 C19.94657923 1.96215243 16.47330039 1.97939165 13 2 C12.67 3.65 12.34 5.3 12 7 C10.68 6.67 9.36 6.34 8 6 C8 4.68 8 3.36 8 2 C6.35 2 4.7 2 3 2 C2.67 3.32 2.34 4.64 2 6 C1.34 5.34 0.68 4.68 0 4 C0 2.68 0 1.36 0 0 Z " fill="#E91476" transform="translate(93,253)"/>
<path d="M0 0 C0.33 0.99 0.66 1.98 1 3 C1.99 3 2.98 3 4 3 C4 4.32 4 5.64 4 7 C8.455 6.505 8.455 6.505 13 6 C13.66 7.65 14.32 9.3 15 11 C10.46930635 13.57852842 6.10103033 14.09880685 1 13 C-1.5425961 10.99295072 -3.28458632 8.73350472 -5 6 C-3.68 5.01 -2.36 4.02 -1 3 C-1.99 2.67 -2.98 2.34 -4 2 C-2.68 1.34 -1.36 0.68 0 0 Z " fill="#50ADE6" transform="translate(110,284)"/>
<path d="M0 0 C3.00217807 1.30187909 3.86610425 2.34704853 6 5 C6.875 8.3125 6.875 8.3125 7 11 C4.36 11 1.72 11 -1 11 C-1.33 9.02 -1.66 7.04 -2 5 C-5.96 5 -9.92 5 -14 5 C-14 3.68 -14 2.36 -14 1 C-9.79155364 -1.10422318 -4.57114549 -0.52445998 0 0 Z " fill="#EB147B" transform="translate(329,210)"/>
<path d="M0 0 C0.99 0.33 1.98 0.66 3 1 C3.6875 3.8125 3.6875 3.8125 4 7 C2.44291608 9.19045221 1.47259177 9.9024642 -1.171875 10.44824219 C-2.02265625 10.48079102 -2.8734375 10.51333984 -3.75 10.546875 C-4.73500488 10.58756104 -5.72000977 10.62824707 -6.73486328 10.67016602 C-7.8123584 10.69651123 -8.88985352 10.72285645 -10 10.75 C-11.67618408 10.80401978 -11.67618408 10.80401978 -13.38623047 10.85913086 C-28.92607714 11.247364 -44.47264454 10.59699771 -60 10 C-60 9.67 -60 9.34 -60 9 C-39.65975695 8.33322307 -19.35389507 7.82362309 1 8 C0.7525 6.2984375 0.7525 6.2984375 0.5 4.5625 C0 1 0 1 0 0 Z " fill="#C43780" transform="translate(152,253)"/>
<path d="M0 0 C0.33 0 0.66 0 1 0 C1.33 7.92 1.66 15.84 2 24 C2.99 24 3.98 24 5 24 C5 22.68 5 21.36 5 20 C6.65 20 8.3 20 10 20 C10 23.3 10 26.6 10 30 C6.7 30 3.4 30 0 30 C0 20.1 0 10.2 0 0 Z " fill="#E0237C" transform="translate(128,220)"/>
<path d="M0 0 C1.32 0 2.64 0 4 0 C4 0.66 4 1.32 4 2 C4.639375 2.12375 5.27875 2.2475 5.9375 2.375 C6.618125 2.58125 7.29875 2.7875 8 3 C8.33 3.66 8.66 4.32 9 5 C9.66 5.66 10.32 6.32 11 7 C10.67 8.98 10.34 10.96 10 13 C4.06 13 -1.88 13 -8 13 C-7.67 12.01 -7.34 11.02 -7 10 C-3.7 9.67 -0.4 9.34 3 9 C3.45218674 5.12128967 3.45218674 5.12128967 1.5 3.375 C1.005 2.92125 0.51 2.4675 0 2 C0 1.34 0 0.68 0 0 Z " fill="#E81577" transform="translate(435,221)"/>
<path d="M0 0 C2.64 0 5.28 0 8 0 C8.185625 0.639375 8.37125 1.27875 8.5625 1.9375 C9.94246056 4.42126213 9.94246056 4.42126213 13.625 4.75 C14.73875 4.8325 15.8525 4.915 17 5 C17 5.66 17 6.32 17 7 C14.03 7 11.06 7 8 7 C11.51716303 10.51716303 13.19567333 10.54676163 18 11 C18 11.33 18 11.66 18 12 C11.72691071 12.44807781 7.22692908 11.66866618 2 8 C-0.1519437 4.77208445 -0.20086443 3.71599191 0 0 Z " fill="#D32A78" transform="translate(309,234)"/>
<path d="M0 0 C1.4606285 2.64738916 2 3.89448334 2 7 C3.051875 7.12375 4.10375 7.2475 5.1875 7.375 C10.07581929 8.17636382 12.84005724 8.84005724 16.375 12.375 C18 15 18 15 17.75 17.3125 C17.5025 17.869375 17.255 18.42625 17 19 C14.8614515 16.8614515 14.57344937 15.86724686 14 13 C12.68 13 11.36 13 10 13 C10 12.34 10 11.68 10 11 C9.34 11.061875 8.68 11.12375 8 11.1875 C3.90915946 10.93182247 0.79333016 9.54304956 -3 8 C-3 7.01 -3 6.02 -3 5 C-3.66 5 -4.32 5 -5 5 C-5 3.68 -5 2.36 -5 1 C-3 0 -3 0 0 0 Z " fill="#EE127D" transform="translate(316,218)"/>
<path d="M0 0 C2.31 0 4.62 0 7 0 C7.33 4.62 7.66 9.24 8 14 C7.01 14.33 6.02 14.66 5 15 C5 14.34 5 13.68 5 13 C4.34 13 3.68 13 3 13 C2.67 12.34 2.34 11.68 2 11 C1.01 10.67 0.02 10.34 -1 10 C-1.02689216 8.52093108 -1.04634621 7.04172517 -1.0625 5.5625 C-1.07410156 4.73878906 -1.08570313 3.91507813 -1.09765625 3.06640625 C-1 1 -1 1 0 0 Z " fill="#E3227D" transform="translate(283,208)"/>
<path d="M0 0 C1 3 1 3 1 5 C2.98 5.99 4.96 6.98 7 8 C3.92184858 11.29043773 2.0347457 12.86823183 -2.59375 13.16796875 C-3.5528125 13.17441406 -4.511875 13.18085938 -5.5 13.1875 C-6.93859375 13.20876953 -6.93859375 13.20876953 -8.40625 13.23046875 C-11 13 -11 13 -14 11 C-13.31292969 10.95101563 -12.62585938 10.90203125 -11.91796875 10.8515625 C-11.01691406 10.77679688 -10.11585937 10.70203125 -9.1875 10.625 C-8.29417969 10.55539062 -7.40085937 10.48578125 -6.48046875 10.4140625 C-3.75601501 10.13354964 -3.75601501 10.13354964 -1 8 C-1.33 7.01 -1.66 6.02 -2 5 C-4.97 5 -7.94 5 -11 5 C-10.67 3.68 -10.34 2.36 -10 1 C-8.906875 1.20625 -7.81375 1.4125 -6.6875 1.625 C-2.9161599 2.40346525 -2.9161599 2.40346525 0 0 Z " fill="#53ACE3" transform="translate(125,286)"/>
<path d="M0 0 C4 1 4 1 5.75 3.5625 C6.1625 4.366875 6.575 5.17125 7 6 C7.33 4.02 7.66 2.04 8 0 C8.99 0 9.98 0 11 0 C11 3.96 11 7.92 11 12 C6.70574125 10.92643531 6.25259529 10.4915227 4 7 C3.67 8.65 3.34 10.3 3 12 C2.01 12 1.02 12 0 12 C0 8.04 0 4.08 0 0 Z " fill="#66ABCF" transform="translate(182,277)"/>
<path d="M0 0 C3 -0.375 3 -0.375 6 0 C8.06723714 3.10085571 8.24497423 3.72931681 8.1953125 7.23046875 C8.18886719 8.03291016 8.18242187 8.83535156 8.17578125 9.66210938 C8.15902344 10.49548828 8.14226562 11.32886719 8.125 12.1875 C8.11597656 13.03248047 8.10695313 13.87746094 8.09765625 14.74804688 C8.07410703 16.83215243 8.03823647 18.91611217 8 21 C9.98 21 11.96 21 14 21 C14 15.39 14 9.78 14 4 C14.33 4 14.66 4 15 4 C15 9.94 15 15.88 15 22 C12.36 22 9.72 22 7 22 C6.67 16.06 6.34 10.12 6 4 C4.35 3.67 2.7 3.34 1 3 C-0.51421001 4.51421001 -0.21309856 5.92472768 -0.31640625 8.03515625 C-0.35830078 8.84404297 -0.40019531 9.65292969 -0.44335938 10.48632812 C-0.48267578 11.33646484 -0.52199219 12.18660156 -0.5625 13.0625 C-0.60568359 13.91650391 -0.64886719 14.77050781 -0.69335938 15.65039062 C-0.79976702 17.76672037 -0.90041731 19.88333813 -1 22 C-3.64 22 -6.28 22 -9 22 C-8.67 20.68 -8.34 19.36 -8 18 C-7.67 18.66 -7.34 19.32 -7 20 C-4.47266765 20.65555119 -4.47266765 20.65555119 -2 21 C-2.02320313 19.73542969 -2.04640625 18.47085938 -2.0703125 17.16796875 C-2.08907126 15.5078184 -2.10727135 13.84766167 -2.125 12.1875 C-2.14175781 11.35412109 -2.15851563 10.52074219 -2.17578125 9.66210938 C-2.18222656 8.85966797 -2.18867188 8.05722656 -2.1953125 7.23046875 C-2.20578613 6.49207764 -2.21625977 5.75368652 -2.22705078 4.99291992 C-2 3 -2 3 0 0 Z " fill="#CE347B" transform="translate(291,223)"/>
<path d="M0 0 C4 1 4 1 5.75 3.5625 C6.1625 4.366875 6.575 5.17125 7 6 C7.33 4.02 7.66 2.04 8 0 C8.99 0.33 9.98 0.66 11 1 C11.125 8.625 11.125 8.625 10 12 C9.01 12 8.02 12 7 12 C5.3125 10 5.3125 10 4 8 C3.34 9.32 2.68 10.64 2 12 C1.34 12 0.68 12 0 12 C0 8.04 0 4.08 0 0 Z " fill="#63B1DE" transform="translate(374,277)"/>
<path d="M0 0 C7.26 0 14.52 0 22 0 C22.66 1.65 23.32 3.3 24 5 C23.34 6.32 22.68 7.64 22 9 C4.84 9 -12.32 9 -30 9 C-30 8.67 -30 8.34 -30 8 C-13.17 8 3.66 8 21 8 C20.505 5.03 20.505 5.03 20 2 C13.4 1.67 6.8 1.34 0 1 C0 0.67 0 0.34 0 0 Z " fill="#D91C73" transform="translate(422,253)"/>
<path d="M0 0 C3.5625 0.3125 3.5625 0.3125 5.5 1.375 C7.216047 4.50426217 7.05998049 6.83013658 6.5625 10.3125 C4.4375 12.375 4.4375 12.375 1.5625 13.3125 C-1.625 12.6875 -1.625 12.6875 -4.4375 11.3125 C-6.4375 8.3125 -6.4375 8.3125 -6.1875 5.25 C-5.10642662 1.01579591 -4.38295681 0.39845062 0 0 Z M-1.4375 2.3125 C-2.0975 2.9725 -2.7575 3.6325 -3.4375 4.3125 C-3.11708603 6.91530568 -3.11708603 6.91530568 -2.4375 9.3125 C-0.04030568 9.99208603 -0.04030568 9.99208603 2.5625 10.3125 C3.2225 9.6525 3.8825 8.9925 4.5625 8.3125 C4.24208603 5.70969432 4.24208603 5.70969432 3.5625 3.3125 C1.16530568 2.63291397 1.16530568 2.63291397 -1.4375 2.3125 Z " fill="#6DABCA" transform="translate(302.4375,276.6875)"/>
<path d="M0 0 C2.31 0 4.62 0 7 0 C7.66 1.32 8.32 2.64 9 4 C6.03 3.505 6.03 3.505 3 3 C3.99 3.66 4.98 4.32 6 5 C6.99 5.66 7.98 6.32 9 7 C8.67 8.65 8.34 10.3 8 12 C5.1875 12.625 5.1875 12.625 2 13 C1.01 12.34 0.02 11.68 -1 11 C-1 10.01 -1 9.02 -1 8 C-0.01 8 0.98 8 2 8 C2 8.66 2 9.32 2 10 C3.32 10 4.64 10 6 10 C6 9.34 6 8.68 6 8 C5.21625 7.87625 4.4325 7.7525 3.625 7.625 C1 7 1 7 -1 5 C-0.625 2.375 -0.625 2.375 0 0 Z " fill="#69B2D6" transform="translate(389,277)"/>
<path d="M0 0 C3.5625 0.25 3.5625 0.25 6.5625 2.25 C6.95409232 5.33378951 7.19865451 7.30328429 6.5625 10.25 C4.4375 12.375 4.4375 12.375 1.5625 13.25 C-1.625 12.625 -1.625 12.625 -4.4375 11.25 C-6.4375 8.25 -6.4375 8.25 -6.1875 5.1875 C-5.10523455 0.94862697 -4.39893831 0.31992279 0 0 Z M-1.4375 2.25 C-2.0975 2.91 -2.7575 3.57 -3.4375 4.25 C-3.11708603 6.85280568 -3.11708603 6.85280568 -2.4375 9.25 C-0.04030568 9.92958603 -0.04030568 9.92958603 2.5625 10.25 C3.2225 9.59 3.8825 8.93 4.5625 8.25 C4.24208603 5.64719432 4.24208603 5.64719432 3.5625 3.25 C1.16530568 2.57041397 1.16530568 2.57041397 -1.4375 2.25 Z " fill="#6AAED1" transform="translate(363.4375,276.75)"/>
<path d="M0 0 C3.25194363 0.08885092 3.78233202 0.15733202 6.1875 2.5625 C7.0625 5.4375 7.0625 5.4375 6.625 8.625 C5.0625 11.4375 5.0625 11.4375 2.25 13 C-0.9375 13.4375 -0.9375 13.4375 -3.8125 12.5625 C-6.21766798 10.15733202 -6.28614908 9.62694363 -6.375 6.375 C-5.78513989 1.06625904 -5.30874096 0.58986011 0 0 Z M-1.9375 2.4375 C-2.5975 3.0975 -3.2575 3.7575 -3.9375 4.4375 C-3.61708603 7.04030568 -3.61708603 7.04030568 -2.9375 9.4375 C-0.54030568 10.11708603 -0.54030568 10.11708603 2.0625 10.4375 C2.7225 9.7775 3.3825 9.1175 4.0625 8.4375 C3.74208603 5.83469432 3.74208603 5.83469432 3.0625 3.4375 C0.66530568 2.75791397 0.66530568 2.75791397 -1.9375 2.4375 Z " fill="#70AED0" transform="translate(171.9375,276.5625)"/>
<path d="M0 0 C3.5625 0.3125 3.5625 0.3125 5.5 1.6875 C6.5625 3.3125 6.5625 3.3125 6.5625 5.3125 C5.5725 5.3125 4.5825 5.3125 3.5625 5.3125 C3.5625 4.6525 3.5625 3.9925 3.5625 3.3125 C1.9125 3.3125 0.2625 3.3125 -1.4375 3.3125 C-1.7675 4.9625 -2.0975 6.6125 -2.4375 8.3125 C0.47732778 9.12217438 2.02363217 9.53095993 4.875 8.375 C5.431875 8.024375 5.98875 7.67375 6.5625 7.3125 C5.9375 9.75 5.9375 9.75 4.5625 12.3125 C1.75 13.4375 1.75 13.4375 -1.4375 13.3125 C-4.375 11.25 -4.375 11.25 -6.4375 8.3125 C-6.33479225 3.07440451 -5.52220483 0.50201862 0 0 Z " fill="#6AACCA" transform="translate(254.4375,276.6875)"/>
<path d="M0 0 C3.5 0.4375 3.5 0.4375 5.4375 1.8125 C6.5 3.4375 6.5 3.4375 6.5 5.4375 C5.51 5.4375 4.52 5.4375 3.5 5.4375 C3.5 4.7775 3.5 4.1175 3.5 3.4375 C1.85 3.4375 0.2 3.4375 -1.5 3.4375 C-1.83 5.0875 -2.16 6.7375 -2.5 8.4375 C0.41482778 9.24717438 1.96113217 9.65595993 4.8125 8.5 C5.369375 8.149375 5.92625 7.79875 6.5 7.4375 C5.8125 9.875 5.8125 9.875 4.5 12.4375 C1.34251085 13.80290071 -0.04381173 13.61375456 -3.25 12.375 C-5.5 10.4375 -5.5 10.4375 -6.5 7.5 C-6.5 4.4375 -6.5 4.4375 -5.5 2.0625 C-3.5 0.4375 -3.5 0.4375 0 0 Z " fill="#6CABC7" transform="translate(220.5,276.5625)"/>
<path d="M0 0 C0.33 0 0.66 0 1 0 C1.06058594 0.79664063 1.12117188 1.59328125 1.18359375 2.4140625 C1.79667866 10.24332697 1.79667866 10.24332697 3 18 C4.98 18 6.96 18 9 18 C8.67 17.34 8.34 16.68 8 16 C7.01 15.67 6.02 15.34 5 15 C5 13.35 5 11.7 5 10 C5.66 10 6.32 10 7 10 C7 7.03 7 4.06 7 1 C7.33 1 7.66 1 8 1 C8 4.96 8 8.92 8 13 C9.32 13 10.64 13 12 13 C12.04254356 14.99954746 12.04080783 17.00041636 12 19 C11 20 11 20 7.6875 20.3125 C4 20 4 20 1.78515625 18.49609375 C-0.706794 15.01172567 -0.43868919 11.85761854 -0.25 7.75 C-0.23195313 7.00492188 -0.21390625 6.25984375 -0.1953125 5.4921875 C-0.14835649 3.66090299 -0.07661652 1.83028351 0 0 Z " fill="#D52B78" transform="translate(268,226)"/>
<path d="M0 0 C0.33 0 0.66 0 1 0 C1 9.24 1 18.48 1 28 C-0.98 28 -2.96 28 -5 28 C-5 20.08 -5 12.16 -5 4 C-4.67 4 -4.34 4 -4 4 C-4 5.98 -4 7.96 -4 10 C-3.34 10 -2.68 10 -2 10 C-2.66 11.98 -3.32 13.96 -4 16 C-3.34 16 -2.68 16 -2 16 C-2 19.63 -2 23.26 -2 27 C-1.34 27 -0.68 27 0 27 C0 18.09 0 9.18 0 0 Z " fill="#E41779" transform="translate(260,216)"/>
<path d="M0 0 C1.32 0.33 2.64 0.66 4 1 C3.67 2.32 3.34 3.64 3 5 C4.423125 4.9690625 4.423125 4.9690625 5.875 4.9375 C9 5 9 5 11 6 C11 7.98 11 9.96 11 12 C7.7 12 4.4 12 1 12 C0.67 10.68 0.34 9.36 0 8 C-0.99 8.33 -1.98 8.66 -3 9 C-2.44271087 5.65626525 -1.64826111 2.96687001 0 0 Z M4 6 C3.34 7.32 2.68 8.64 2 10 C4.64 10 7.28 10 10 10 C9.34 8.68 8.68 7.36 8 6 C6.68 6 5.36 6 4 6 Z " fill="#D92479" transform="translate(207,219)"/>
<path d="M0 0 C0.66 0 1.32 0 2 0 C2 5.61 2 11.22 2 17 C-0.743125 17.04125 -3.48625 17.0825 -6.3125 17.125 C-7.60281128 17.15231201 -7.60281128 17.15231201 -8.91918945 17.18017578 C-9.94338989 17.18766846 -9.94338989 17.18766846 -10.98828125 17.1953125 C-11.68477783 17.20578613 -12.38127441 17.21625977 -13.09887695 17.22705078 C-15 17 -15 17 -18 15 C-17.01 15 -16.02 15 -15 15 C-15.33 13.68 -15.66 12.36 -16 11 C-14.02 11 -12.04 11 -10 11 C-11.32 12.32 -12.64 13.64 -14 15 C-9.38 15 -4.76 15 0 15 C0 10.05 0 5.1 0 0 Z " fill="#D72678" transform="translate(109,219)"/>
<path d="M0 0 C1.134375 0.020625 2.26875 0.04125 3.4375 0.0625 C3.7675 1.3825 4.0975 2.7025 4.4375 4.0625 C1.4675 3.5675 1.4675 3.5675 -1.5625 3.0625 C-0.5725 3.7225 0.4175 4.3825 1.4375 5.0625 C2.4275 5.7225 3.4175 6.3825 4.4375 7.0625 C4.1075 8.7125 3.7775 10.3625 3.4375 12.0625 C1.125 12.6875 1.125 12.6875 -1.5625 13.0625 C-2.5525 12.4025 -3.5425 11.7425 -4.5625 11.0625 C-4.5625 10.0725 -4.5625 9.0825 -4.5625 8.0625 C-3.9025 8.0625 -3.2425 8.0625 -2.5625 8.0625 C-2.5625 8.7225 -2.5625 9.3825 -2.5625 10.0625 C-1.2425 10.0625 0.0775 10.0625 1.4375 10.0625 C1.4375 9.4025 1.4375 8.7425 1.4375 8.0625 C-0.5425 7.4025 -2.5225 6.7425 -4.5625 6.0625 C-4.605221 4.39638095 -4.60313832 2.72867115 -4.5625 1.0625 C-3.5625 0.0625 -3.5625 0.0625 0 0 Z " fill="#6CAACF" transform="translate(288.5625,276.9375)"/>
<path d="M0 0 C0.87527344 0.18175781 1.75054687 0.36351562 2.65234375 0.55078125 C3.53019531 0.71964844 4.40804688 0.88851562 5.3125 1.0625 C7.58984375 1.86328125 7.58984375 1.86328125 9.58984375 4.86328125 C9.58984375 6.18328125 9.58984375 7.50328125 9.58984375 8.86328125 C6.27734375 9.11328125 6.27734375 9.11328125 2.58984375 8.86328125 C0.65234375 6.98828125 0.65234375 6.98828125 -0.41015625 4.86328125 C-0.41015625 4.20328125 -0.41015625 3.54328125 -0.41015625 2.86328125 C-2.06015625 2.53328125 -3.71015625 2.20328125 -5.41015625 1.86328125 C-2.41015625 -0.13671875 -2.41015625 -0.13671875 0 0 Z " fill="#E21E7A" transform="translate(352.41015625,220.13671875)"/>
<path d="M0 0 C3.95667763 1.2832468 5.82749843 2.44499744 8 6 C8.66306772 9.34064654 8.77559069 12.58897849 9 16 C3.72 16 -1.56 16 -7 16 C-6.34 16.99 -5.68 17.98 -5 19 C-1.43230448 19.73606499 -1.43230448 19.73606499 2 20 C2 20.33 2 20.66 2 21 C-4.0546875 21.1953125 -4.0546875 21.1953125 -6 21 C-6.66 20.34 -7.32 19.68 -8 19 C-8 17.68 -8 16.36 -8 15 C-2.91913204 14.15318867 1.84828377 13.90961901 7 14 C6.745504 12.51793505 6.47088238 11.03931385 6.1875 9.5625 C6.03667969 8.73878906 5.88585937 7.91507813 5.73046875 7.06640625 C5.48941406 6.38449219 5.24835938 5.70257813 5 5 C4.01 4.67 3.02 4.34 2 4 C0.8125 1.9375 0.8125 1.9375 0 0 Z " fill="#C92E74" transform="translate(216,219)"/>
<path d="M0 0 C0.99 0 1.98 0 3 0 C3.33 3.3 3.66 6.6 4 10 C4.99 9.67 5.98 9.34 7 9 C7.33 6.03 7.66 3.06 8 0 C8.99 0.33 9.98 0.66 11 1 C10.9129995 2.62600941 10.8048219 4.25089678 10.6875 5.875 C10.62949219 6.77992188 10.57148438 7.68484375 10.51171875 8.6171875 C10 11 10 11 7 13 C4.4375 12.8125 4.4375 12.8125 2 12 C-0.13586678 8.79619983 -0.23132175 7.98060033 -0.125 4.3125 C-0.10695313 3.50425781 -0.08890625 2.69601562 -0.0703125 1.86328125 C-0.04710937 1.24839844 -0.02390625 0.63351562 0 0 Z " fill="#6DB2D1" transform="translate(324,277)"/>
<path d="M0 0 C2.64 0 5.28 0 8 0 C8 1.98 8 3.96 8 6 C9.32 6 10.64 6 12 6 C12 7.98 12 9.96 12 12 C10.68 11.67 9.36 11.34 8 11 C8.99 11 9.98 11 11 11 C11 9.68 11 8.36 11 7 C3.97217958 5.9609283 3.97217958 5.9609283 -3 7 C-3 8.32 -3 9.64 -3 11 C-2.01 11.33 -1.02 11.66 0 12 C-1.32 12 -2.64 12 -4 12 C-4 10.02 -4 8.04 -4 6 C-2.68 6 -1.36 6 0 6 C0 4.02 0 2.04 0 0 Z " fill="#D8287A" transform="translate(268,213)"/>
<path d="M0 0 C2.9375 2.5625 2.9375 2.5625 5 5 C4.67 5.99 4.34 6.98 4 8 C3.01 7.67 2.02 7.34 1 7 C1.66 7 2.32 7 3 7 C3 6.34 3 5.68 3 5 C1.68 4.67 0.36 4.34 -1 4 C-1 3.34 -1 2.68 -1 2 C-2.32 2 -3.64 2 -5 2 C-4.67 3.32 -4.34 4.64 -4 6 C-5.98 6.66 -7.96 7.32 -10 8 C-9.34 6.68 -8.68 5.36 -8 4 C-10.97 3.505 -10.97 3.505 -14 3 C-9.90550227 -1.70867238 -5.89771157 -1.44856074 0 0 Z " fill="#D52577" transform="translate(440,219)"/>
<path d="M0 0 C2.64 0 5.28 0 8 0 C8 0.66 8 1.32 8 2 C6.35 2.33 4.7 2.66 3 3 C3 3.33 3 3.66 3 4 C4.65 4.33 6.3 4.66 8 5 C7.67 5.99 7.34 6.98 7 8 C5.35 8 3.7 8 2 8 C2 8.66 2 9.32 2 10 C3.98 10 5.96 10 8 10 C8 10.66 8 11.32 8 12 C5.36 12 2.72 12 0 12 C0 8.04 0 4.08 0 0 Z " fill="#76A7C3" transform="translate(197,277)"/>
<path d="M0 0 C2.97 0.33 5.94 0.66 9 1 C9 1.66 9 2.32 9 3 C7.02 3 5.04 3 3 3 C3.66 6.63 4.32 10.26 5 14 C2.0625 13.25 2.0625 13.25 -1 12 C-2.76354527 7.73809893 -1.20546093 4.25456799 0 0 Z " fill="#EB1378" transform="translate(230,230)"/>
<path d="M0 0 C0.66 0 1.32 0 2 0 C2 1.65 2 3.3 2 5 C2.99 5 3.98 5 5 5 C5.66 3.35 6.32 1.7 7 0 C7.66 0 8.32 0 9 0 C8.79375 1.2375 8.5875 2.475 8.375 3.75 C7.93892876 7.11909835 7.96596361 9.12841921 10 12 C8.0625 11.625 8.0625 11.625 6 11 C5.67 10.34 5.34 9.68 5 9 C4.01 8.67 3.02 8.34 2 8 C2 9.32 2 10.64 2 12 C1.34 12 0.68 12 0 12 C-0.19401633 10.18818595 -0.38004375 8.37551468 -0.5625 6.5625 C-0.66691406 5.55316406 -0.77132813 4.54382813 -0.87890625 3.50390625 C-0.91886719 2.67761719 -0.95882813 1.85132813 -1 1 C-0.67 0.67 -0.34 0.34 0 0 Z " fill="#6BABD0" transform="translate(265,277)"/>
<path d="M0 0 C3.3 0 6.6 0 10 0 C10.07347656 1.77117187 10.07347656 1.77117187 10.1484375 3.578125 C10.22348879 5.13543937 10.29903561 6.69272991 10.375 8.25 C10.4059375 9.02730469 10.436875 9.80460937 10.46875 10.60546875 C10.72658242 16.07379907 10.72658242 16.07379907 13 21 C12.01 21 11.02 21 10 21 C8 19 8 19 7.8046875 15.0859375 C7.81799624 13.51550649 7.84186398 11.94513779 7.875 10.375 C7.88402344 9.57320313 7.89304687 8.77140625 7.90234375 7.9453125 C7.92593777 5.96341477 7.96180935 3.98167019 8 2 C3.545 2.495 3.545 2.495 -1 3 C-0.67 2.01 -0.34 1.02 0 0 Z " fill="#63A6D1" transform="translate(101,266)"/>
<path d="M0 0 C3.3 0 6.6 0 10 0 C9.67 1.98 9.34 3.96 9 6 C6.69 6.33 4.38 6.66 2 7 C2 8.65 2 10.3 2 12 C1.67 12 1.34 12 1 12 C0.67 8.04 0.34 4.08 0 0 Z " fill="#52A6D8" transform="translate(128,263)"/>
<path d="M0 0 C0.86625 0.4640625 0.86625 0.4640625 1.75 0.9375 C3.86610718 1.93677284 5.72376414 2.50207341 8 3 C11.88888889 3.88888889 11.88888889 3.88888889 13 5 C15.44608998 5.15980437 17.86731058 5.25929447 20.31640625 5.31640625 C21.04746078 5.33718735 21.77851532 5.35796844 22.53172302 5.37937927 C24.87521656 5.44495024 27.21882539 5.50379432 29.5625 5.5625 C31.14779855 5.60567808 32.73308529 5.64929213 34.31835938 5.69335938 C38.21212037 5.8006392 42.10599772 5.9018849 46 6 C46 6.33 46 6.66 46 7 C40.69813441 7.09918586 35.39681382 7.17161755 30.09423828 7.21972656 C28.29205919 7.23979033 26.48994479 7.26704813 24.68798828 7.30175781 C22.09130864 7.35050829 19.49549271 7.37302082 16.8984375 7.390625 C15.69808365 7.42159271 15.69808365 7.42159271 14.47348022 7.45318604 C9.17897956 7.45528984 6.1890716 6.5273878 2 3 C1.34 2.01 0.68 1.02 0 0 Z " fill="#D82078" transform="translate(81,255)"/>
<path d="M0 0 C0 1.65 0 3.3 0 5 C-1.60341555 5.33692785 -3.20776555 5.66941093 -4.8125 6 C-5.70582031 6.185625 -6.59914063 6.37125 -7.51953125 6.5625 C-10 7 -10 7 -13 7 C-13 6.01 -13 5.02 -13 4 C-12.34 4 -11.68 4 -11 4 C-11 3.34 -11 2.68 -11 2 C-6.89657963 -0.38570952 -4.61380251 -1.49270081 0 0 Z " fill="#F11280" transform="translate(94,231)"/>
<path d="M0 0 C0.99 0 1.98 0 3 0 C3.33 4.95 3.66 9.9 4 15 C2.35 15.33 0.7 15.66 -1 16 C-1.02685095 13.52076199 -1.04676547 11.0418116 -1.0625 8.5625 C-1.07506836 7.50192383 -1.07506836 7.50192383 -1.08789062 6.41992188 C-1.09653588 4.61306441 -1.05220011 2.80612397 -1 1 C-0.67 0.67 -0.34 0.34 0 0 Z " fill="#ED137B" transform="translate(342,223)"/>
<path d="M0 0 C2.0625 0.4375 2.0625 0.4375 4 1 C4.6875 2.8125 4.6875 2.8125 5 5 C3.15840327 7.48615558 1.99529289 8.00156904 -1 9 C-2.39439664 9.06665376 -3.79169875 9.08538199 -5.1875 9.0625 C-7.0746875 9.0315625 -7.0746875 9.0315625 -9 9 C-9 8.67 -9 8.34 -9 8 C-8.21625 7.87625 -7.4325 7.7525 -6.625 7.625 C-3.85942178 7.20882007 -3.85942178 7.20882007 -2 5 C-1.67 4.67 -1.34 4.34 -1 4 C-2.98 4 -4.96 4 -7 4 C-7.33 3.34 -7.66 2.68 -8 2 C-6.865625 1.855625 -5.73125 1.71125 -4.5625 1.5625 C-1.19222799 1.38828522 -1.19222799 1.38828522 0 0 Z " fill="#CF2B75" transform="translate(440,237)"/>
<path d="M0 0 C0 1.32 0 2.64 0 4 C-1.32 4 -2.64 4 -4 4 C-4 4.99 -4 5.98 -4 7 C-5.258125 7.04125 -6.51625 7.0825 -7.8125 7.125 C-8.52019531 7.14820313 -9.22789062 7.17140625 -9.95703125 7.1953125 C-12 7 -12 7 -15 5 C-15 4.34 -15 3.68 -15 3 C-12.03 3 -9.06 3 -6 3 C-6 2.34 -6 1.68 -6 1 C-4 0 -4 0 0 0 Z " fill="#EB147A" transform="translate(332,238)"/>
<path d="M0 0 C4.03848316 -0.02481344 8.07693647 -0.0429136 12.11547852 -0.05493164 C13.48788222 -0.05994454 14.86028062 -0.06675658 16.23266602 -0.07543945 C18.21107651 -0.08763857 20.1895268 -0.09272248 22.16796875 -0.09765625 C23.35672607 -0.10289307 24.5454834 -0.10812988 25.77026367 -0.11352539 C28.64737487 -0.01239479 31.20673413 0.33449807 34 1 C34 1.33 34 1.66 34 2 C33.14019531 1.98839844 32.28039062 1.97679687 31.39453125 1.96484375 C23.2074948 1.90234729 15.15135917 2.24173403 7 3 C7 2.34 7 1.68 7 1 C6.34 1 5.68 1 5 1 C5 1.66 5 2.32 5 3 C2.525 2.01 2.525 2.01 0 1 C0 0.67 0 0.34 0 0 Z " fill="#E81576" transform="translate(311,253)"/>
<path d="M0 0 C2.5625 0.1875 2.5625 0.1875 4.5625 2.1875 C4.1875 4.8125 4.1875 4.8125 3.5625 7.1875 C1.25 7.875 1.25 7.875 -1.4375 8.1875 C-3.3125 7 -3.3125 7 -4.4375 5.1875 C-4.02450713 1.6770606 -3.6499568 0.28076591 0 0 Z " fill="#D32676" transform="translate(386.4375,208.8125)"/>
<path d="M0 0 C3.40776222 1.4101085 5.13419899 2.80600166 7 6 C7.36328125 9.3828125 7.36328125 9.3828125 7.3125 13.125 C7.30863281 14.36507812 7.30476563 15.60515625 7.30078125 16.8828125 C7 20 7 20 5 22 C5 17.38 5 12.76 5 8 C4.01 7.67 3.02 7.34 2 7 C2 6.34 2 5.68 2 5 C1.34 4.67 0.68 4.34 0 4 C0 2.68 0 1.36 0 0 Z " fill="#D22876" transform="translate(412,219)"/>
<path d="M0 0 C0.33 0.99 0.66 1.98 1 3 C4.97415868 5.22085338 8.5214021 5.17563129 13 5 C13 5.99 13 6.98 13 8 C10.08291076 9.98362069 8.87619096 9.9876191 5.25 9.625 C4.1775 9.41875 3.105 9.2125 2 9 C1.87625 8.195625 1.7525 7.39125 1.625 6.5625 C1.315625 5.2940625 1.315625 5.2940625 1 4 C0.34 3.67 -0.32 3.34 -1 3 C-0.67 2.01 -0.34 1.02 0 0 Z " fill="#EB147B" transform="translate(427,235)"/>
<path d="M0 0 C6.52889829 1.88612617 6.52889829 1.88612617 9 5 C9.58203125 7.12109375 9.58203125 7.12109375 9.8125 9.4375 C9.90144531 10.19933594 9.99039062 10.96117187 10.08203125 11.74609375 C9.98594362 14.38621568 9.43766777 15.7943273 8 18 C5 20 5 20 2 20 C2 19.01 2 18.02 2 17 C3.32 17 4.64 17 6 17 C6 16.01 6 15.02 6 14 C6.66 13.67 7.32 13.34 8 13 C7.4975516 8.60357652 6.02704059 6.2051018 3 3 C2.01 2.67 1.02 2.34 0 2 C0 1.34 0 0.68 0 0 Z " fill="#CD3079" transform="translate(326,225)"/>
<path d="M0 0 C1.49080078 0.16628906 1.49080078 0.16628906 3.01171875 0.3359375 C3.77097656 0.43132812 4.53023438 0.52671875 5.3125 0.625 C5.6425 1.615 5.9725 2.605 6.3125 3.625 C5.9825 4.285 5.6525 4.945 5.3125 5.625 C5.9725 5.955 6.6325 6.285 7.3125 6.625 C6.3225 7.12 6.3225 7.12 5.3125 7.625 C4.3225 7.295 3.3325 6.965 2.3125 6.625 C1.125 4.0625 1.125 4.0625 0.3125 1.625 C-2.62841587 1.80915432 -2.62841587 1.80915432 -5.6875 2.625 C-7.12387698 4.57663118 -7.12387698 4.57663118 -7.6875 6.625 C-8.3475 6.625 -9.0075 6.625 -9.6875 6.625 C-9.375 4.25 -9.375 4.25 -8.6875 1.625 C-5.1388865 -0.74074234 -4.1110475 -0.48365265 0 0 Z " fill="#ED127C" transform="translate(296.6875,221.375)"/>
<path d="M0 0 C11.80644596 -0.85969267 11.80644596 -0.85969267 15.6875 2.125 C18.19246223 5.23927736 18.81625695 7.04952449 19 11 C16.36 11 13.72 11 11 11 C10.67 9.68 10.34 8.36 10 7 C10.66 7 11.32 7 12 7 C12 7.66 12 8.32 12 9 C13.32 9 14.64 9 16 9 C15.73323796 7.01508358 15.73323796 7.01508358 15 5 C14.01 4.67 13.02 4.34 12 4 C11.67 3.34 11.34 2.68 11 2 C8.41394668 1.5316735 8.41394668 1.5316735 5.4375 1.375 C3.91962891 1.26285156 3.91962891 1.26285156 2.37109375 1.1484375 C1.19740234 1.07496094 1.19740234 1.07496094 0 1 C0 0.67 0 0.34 0 0 Z " fill="#CE3079" transform="translate(317,210)"/>
<path d="M0 0 C2.0625 0.4375 2.0625 0.4375 4 1 C4 1.66 4 2.32 4 3 C4.99 3.33 5.98 3.66 7 4 C8.1875 6.0625 8.1875 6.0625 9 8 C8.34 8 7.68 8 7 8 C7.33 8.99 7.66 9.98 8 11 C7.01 11.495 7.01 11.495 6 12 C6 10.35 6 8.7 6 7 C3.36 6.67 0.72 6.34 -2 6 C-1.125 1.125 -1.125 1.125 0 0 Z " fill="#E7177A" transform="translate(212,218)"/>
<path d="M0 0 C0.66 0 1.32 0 2 0 C2 0.99 2 1.98 2 3 C2.66 3.33 3.32 3.66 4 4 C3.625 5.9375 3.625 5.9375 3 8 C2.01 8.495 2.01 8.495 1 9 C3.475 12.465 3.475 12.465 6 16 C1.71095765 14.4114658 -0.32345526 11.56872632 -3 8 C-3 7.34 -3 6.68 -3 6 C-2.34 6 -1.68 6 -1 6 C-0.67 4.02 -0.34 2.04 0 0 Z " fill="#5AAADA" transform="translate(105,281)"/>
<path d="M0 0 C0.33 0 0.66 0 1 0 C1.33 6.93 1.66 13.86 2 21 C-0.97 21 -3.94 21 -7 21 C-7.66 21.33 -8.32 21.66 -9 22 C-11.3329866 22.04022391 -13.66706666 22.04320247 -16 22 C-16 21.67 -16 21.34 -16 21 C-11.05 20.01 -6.1 19.02 -1 18 C-0.505 9.09 -0.505 9.09 0 0 Z " fill="#C53976" transform="translate(248,224)"/>
<path d="M0 0 C2.31 0 4.62 0 7 0 C7.125 2.375 7.125 2.375 7 5 C6.34 5.66 5.68 6.32 5 7 C4.01 7 3.02 7 2 7 C1.34 7.66 0.68 8.32 0 9 C0 6.03 0 3.06 0 0 Z " fill="#E91471" transform="translate(282,209)"/>
<path d="M0 0 C2.31 0 4.62 0 7 0 C7.185625 0.639375 7.37125 1.27875 7.5625 1.9375 C8.94246056 4.42126213 8.94246056 4.42126213 12.625 4.75 C13.73875 4.8325 14.8525 4.915 16 5 C16 5.33 16 5.66 16 6 C5.44191344 6.18451025 5.44191344 6.18451025 1 5 C0.67 3.35 0.34 1.7 0 0 Z " fill="#DB2379" transform="translate(310,234)"/>
<path d="M0 0 C0.99 0.33 1.98 0.66 3 1 C3 3.97 3 6.94 3 10 C4.65 10 6.3 10 8 10 C8 10.66 8 11.32 8 12 C5.36 12 2.72 12 0 12 C0 8.04 0 4.08 0 0 Z " fill="#68AFD1" transform="translate(313,277)"/>
<path d="M0 0 C-0.99 0 -1.98 0 -3 0 C-3 0.66 -3 1.32 -3 2 C-3.66 2 -4.32 2 -5 2 C-4.67 3.32 -4.34 4.64 -4 6 C-5.9375 6.5625 -5.9375 6.5625 -8 7 C-8.33 6.67 -8.66 6.34 -9 6 C-9.99 7.485 -9.99 7.485 -11 9 C-11.99 9 -12.98 9 -14 9 C-12.87028571 4.05749997 -10.11636997 2.38948207 -6.0703125 -0.1796875 C-3.59901215 -1.15888198 -2.4574558 -0.89261848 0 0 Z " fill="#DA1F76" transform="translate(117,204)"/>
<path d="M0 0 C0.33 0 0.66 0 1 0 C1.10867663 3.02181414 1.18762754 6.03966327 1.25 9.0625 C1.28351563 9.91005859 1.31703125 10.75761719 1.3515625 11.63085938 C1.44432044 17.63693621 0.51933535 21.09248237 -3 26 C-3.66 26.33 -4.32 26.66 -5 27 C-4.91291331 25.54054712 -4.80473093 24.08234132 -4.6875 22.625 C-4.62949219 21.81289063 -4.57148438 21.00078125 -4.51171875 20.1640625 C-4 18 -4 18 -1 16 C-0.61605333 13.22737745 -0.39657752 10.65676472 -0.3125 7.875 C-0.27833984 7.12089844 -0.24417969 6.36679687 -0.20898438 5.58984375 C-0.12645722 3.72708799 -0.06155289 1.86356674 0 0 Z " fill="#62A9D4" transform="translate(137,267)"/>
<path d="M0 0 C8.58 0 17.16 0 26 0 C26 0.99 26 1.98 26 3 C25.67 2.67 25.34 2.34 25 2 C19.82264323 1.62947661 19.82264323 1.62947661 15 3 C14.319375 2.855625 13.63875 2.71125 12.9375 2.5625 C8.94548895 1.79807235 5.05167346 1.92055542 1 2 C0.67 1.34 0.34 0.68 0 0 Z " fill="#DB1B75" transform="translate(126,253)"/>
<path d="M0 0 C7.26 0 14.52 0 22 0 C24 5 24 5 23.125 7.3125 C22.568125 8.1478125 22.568125 8.1478125 22 9 C20.02 9 18.04 9 16 9 C16 8.67 16 8.34 16 8 C17.65 8 19.3 8 21 8 C20.67 6.02 20.34 4.04 20 2 C13.4 1.67 6.8 1.34 0 1 C0 0.67 0 0.34 0 0 Z " fill="#C52973" transform="translate(422,253)"/>
<path d="M0 0 C5.9584102 0.97280167 8.81090847 3.16164302 12.62109375 7.82421875 C14.61603926 10.97205061 14.92303361 13.30561318 15 17 C14.67 16.34 14.34 15.68 14 15 C13.34 15 12.68 15 12 15 C12 13.35 12 11.7 12 10 C11.01 10 10.02 10 9 10 C9 8.68 9 7.36 9 6 C8.34 6 7.68 6 7 6 C6 5 5 4 4 3 C1.90010348 1.82425289 1.90010348 1.82425289 0 1 C0 0.67 0 0.34 0 0 Z " fill="#D32774" transform="translate(123,203)"/>
<path d="M0 0 C2 3 2 3 2 6 C1.34 6 0.68 6 0 6 C-0.33 5.01 -0.66 4.02 -1 3 C-4.63 2.34 -8.26 1.68 -12 1 C-11 -1 -11 -1 -9.375 -1.75 C-5.88177937 -2.11770743 -3.26513443 -1.20930905 0 0 Z " fill="#D52675" transform="translate(303,220)"/>
<path d="M0 0 C0.99 0 1.98 0 3 0 C3 3.96 3 7.92 3 12 C1.68 11.67 0.36 11.34 -1 11 C-1.33 10.01 -1.66 9.02 -2 8 C-1.34 8 -0.68 8 0 8 C0 5.36 0 2.72 0 0 Z " fill="#6BADD6" transform="translate(190,277)"/>
<path d="M0 0 C3.3 0 6.6 0 10 0 C10 0.66 10 1.32 10 2 C8.68 2 7.36 2 6 2 C6 5.3 6 8.6 6 12 C5.34 12 4.68 12 4 12 C3.67 9.03 3.34 6.06 3 3 C2.01 2.67 1.02 2.34 0 2 C0 1.34 0 0.68 0 0 Z " fill="#72AFD0" transform="translate(338,277)"/>
<path d="M0 0 C3.3 0 6.6 0 10 0 C10 0.66 10 1.32 10 2 C9.05125 1.979375 8.1025 1.95875 7.125 1.9375 C4.09333717 1.77448174 4.09333717 1.77448174 2 3 C2.03955898 4.92309422 2.03955898 4.92309422 3 7 C5.98352894 8.78379415 5.98352894 8.78379415 9 10 C8.67 10.66 8.34 11.32 8 12 C4.5625 11.1875 4.5625 11.1875 1 10 C-0.1577506 6.52674819 -0.06866652 3.63932552 0 0 Z " fill="#D8277B" transform="translate(317,215)"/>
<path d="M0 0 C0.66 0 1.32 0 2 0 C2.33 2.97 2.66 5.94 3 9 C2.34 9 1.68 9 1 9 C0.67 10.98 0.34 12.96 0 15 C-0.99 14.67 -1.98 14.34 -3 14 C-2.34 14 -1.68 14 -1 14 C-1.09539062 13.32453125 -1.19078125 12.6490625 -1.2890625 11.953125 C-1.39992188 11.06109375 -1.51078125 10.1690625 -1.625 9.25 C-1.74101563 8.36828125 -1.85703125 7.4865625 -1.9765625 6.578125 C-2.00207817 3.77140122 -1.44843844 2.36615134 0 0 Z " fill="#4DB0E8" transform="translate(104,272)"/>
<path d="M0 0 C0.99 0.33 1.98 0.66 3 1 C3 1.99 3 2.98 3 4 C-4.92 4.495 -4.92 4.495 -13 5 C-12.67 4.01 -12.34 3.02 -12 2 C-10.95199219 1.90912109 -10.95199219 1.90912109 -9.8828125 1.81640625 C-8.97273438 1.73261719 -8.06265625 1.64882812 -7.125 1.5625 C-6.22007812 1.48128906 -5.31515625 1.40007812 -4.3828125 1.31640625 C-1.98889139 1.13010715 -1.98889139 1.13010715 0 0 Z " fill="#EF127B" transform="translate(440,229)"/>
<path d="M0 0 C0.66 0 1.32 0 2 0 C2.33 2.97 2.66 5.94 3 9 C4.65 9.33 6.3 9.66 8 10 C8 10.66 8 11.32 8 12 C5.36 12 2.72 12 0 12 C-0.19401633 10.18818595 -0.38004375 8.37551468 -0.5625 6.5625 C-0.66691406 5.55316406 -0.77132812 4.54382813 -0.87890625 3.50390625 C-0.91886719 2.67761719 -0.95882812 1.85132813 -1 1 C-0.67 0.67 -0.34 0.34 0 0 Z " fill="#6EAEC7" transform="translate(231,277)"/>
<path d="M0 0 C1.32 0 2.64 0 4 0 C4 3.3 4 6.6 4 10 C3.01 10.33 2.02 10.66 1 11 C-0.20272819 8.59454362 -0.10071472 7.05003047 -0.0625 4.375 C-0.05347656 3.55773437 -0.04445313 2.74046875 -0.03515625 1.8984375 C-0.02355469 1.27195313 -0.01195312 0.64546875 0 0 Z " fill="#ED127D" transform="translate(300,232)"/>
<path d="M0 0 C1.32 0.33 2.64 0.66 4 1 C4 2.98 4 4.96 4 7 C1.03 7 -1.94 7 -5 7 C-5 6.34 -5 5.68 -5 5 C-3.35 4.34 -1.7 3.68 0 3 C0 2.01 0 1.02 0 0 Z " fill="#EF107B" transform="translate(219,226)"/>
<path d="M0 0 C0.99 0 1.98 0 3 0 C3 3.96 3 7.92 3 12 C2.01 12 1.02 12 0 12 C0 8.04 0 4.08 0 0 Z " fill="#6CAACA" transform="translate(351,277)"/>
<path d="M0 0 C0.99 0 1.98 0 3 0 C3 3.96 3 7.92 3 12 C2.01 12 1.02 12 0 12 C0 8.04 0 4.08 0 0 Z " fill="#69A7C5" transform="translate(242,277)"/>
<path d="M0 0 C2.31 0.33 4.62 0.66 7 1 C7 2.98 7 4.96 7 7 C3.04 7 -0.92 7 -5 7 C-3 5 -3 5 -1.0546875 4.8046875 C0.96354167 4.86979167 2.98177083 4.93489583 5 5 C4.33131686 1.88667752 4.33131686 1.88667752 1.9375 0.8125 C1.298125 0.544375 0.65875 0.27625 0 0 Z " fill="#CF3079" transform="translate(236,224)"/>
<path d="M0 0 C1.98 0 3.96 0 6 0 C6.33 0.66 6.66 1.32 7 2 C6.01 2.495 6.01 2.495 5 3 C4.34444881 5.52733235 4.34444881 5.52733235 4 8 C3.67 7.34 3.34 6.68 3 6 C1.68 6 0.36 6 -1 6 C-0.67 4.02 -0.34 2.04 0 0 Z " fill="#EA167B" transform="translate(426,222)"/>
<path d="M0 0 C1.32 0.33 2.64 0.66 4 1 C4.33 1.99 4.66 2.98 5 4 C3.68 4.33 2.36 4.66 1 5 C1.99 6.485 1.99 6.485 3 8 C2.625 10.1875 2.625 10.1875 2 12 C1.34 12 0.68 12 0 12 C0 8.04 0 4.08 0 0 Z " fill="#6BABD7" transform="translate(374,277)"/>
<path d="M0 0 C1.65 0 3.3 0 5 0 C5.125 6.625 5.125 6.625 4 10 C3.01 9.67 2.02 9.34 1 9 C0.67 6.03 0.34 3.06 0 0 Z " fill="#EF117E" transform="translate(169,222)"/>
<path d="M0 0 C-4.17451967 3.31082594 -7.19957241 4.15187885 -12.5 4.1875 C-13.93859375 4.20876953 -13.93859375 4.20876953 -15.40625 4.23046875 C-18 4 -18 4 -21 2 C-16.05 2 -11.1 2 -6 2 C-6 1.34 -6 0.68 -6 0 C-2.25 -1.125 -2.25 -1.125 0 0 Z " fill="#66A8D1" transform="translate(132,295)"/>
<path d="M0 0 C0.33 0 0.66 0 1 0 C1.33 5.94 1.66 11.88 2 18 C0 17 0 17 -1 14 C-1.09416778 11.98093192 -1.12991192 9.95875687 -1.125 7.9375 C-1.12757813 6.87402344 -1.13015625 5.81054688 -1.1328125 4.71484375 C-1 2 -1 2 0 0 Z " fill="#CA3279" transform="translate(340,224)"/>
<path d="M0 0 C6.15234375 -0.09765625 6.15234375 -0.09765625 8 0 C9 1 9 1 9.25 3.4375 C9.1675 4.283125 9.085 5.12875 9 6 C5.77208445 8.1519437 4.71599191 8.20086443 1 8 C-0.35439668 5.29120665 -0.06501451 2.99066732 0 0 Z M3 1 C2.34 2.32 1.68 3.64 1 5 C2.98 5.99 2.98 5.99 5 7 C5.99 6.34 6.98 5.68 8 5 C8 3.68 8 2.36 8 1 C6.35 1 4.7 1 3 1 Z " fill="#D02D7A" transform="translate(233,233)"/>
<path d="M0 0 C1.98 0 3.96 0 6 0 C6 1.65 6 3.3 6 5 C4.02 5.33 2.04 5.66 0 6 C0 4.02 0 2.04 0 0 Z " fill="#E51678" transform="translate(255,209)"/>
<path d="M0 0 C0.8971875 0.5259375 0.8971875 0.5259375 1.8125 1.0625 C4.10813214 2.33304698 4.10813214 2.33304698 7 1 C9.1875 1.9375 9.1875 1.9375 11 3 C9.39658445 3.33692785 7.79223445 3.66941093 6.1875 4 C5.29417969 4.185625 4.40085937 4.37125 3.48046875 4.5625 C1 5 1 5 -2 5 C-2 4.01 -2 3.02 -2 2 C-1.34 2 -0.68 2 0 2 C0 1.34 0 0.68 0 0 Z " fill="#EC147B" transform="translate(83,233)"/>
<path d="M0 0 C3.3 0 6.6 0 10 0 C10 0.99 10 1.98 10 3 C6.7 3 3.4 3 0 3 C0 2.01 0 1.02 0 0 Z " fill="#486998" transform="translate(128,263)"/>
<path d="M0 0 C1.134375 0.020625 2.26875 0.04125 3.4375 0.0625 C3.1075 0.7225 2.7775 1.3825 2.4375 2.0625 C1.4784375 2.18625 1.4784375 2.18625 0.5 2.3125 C-0.180625 2.56 -0.86125 2.8075 -1.5625 3.0625 C-2.8670656 6.05865946 -2.8670656 6.05865946 -3.5625 9.0625 C-4.2225 8.4025 -4.8825 7.7425 -5.5625 7.0625 C-4.85052009 0.08509684 -4.85052009 0.08509684 0 0 Z " fill="#68ABD3" transform="translate(301.5625,277.9375)"/>
<path d="M0 0 C2.31 0 4.62 0 7 0 C6.64598897 3.18609925 6.16972964 4.79066678 4.125 7.3125 C2 9 2 9 -1 9 C-1 8.34 -1 7.68 -1 7 C0.32 7 1.64 7 3 7 C3.33 5.02 3.66 3.04 4 1 C2.68 0.67 1.36 0.34 0 0 Z " fill="#CF3379" transform="translate(355,236)"/>
<path d="M0 0 C0.99 0.33 1.98 0.66 3 1 C3.33 2.98 3.66 4.96 4 7 C4.99 7.33 5.98 7.66 7 8 C5.02 8.99 5.02 8.99 3 10 C3 8.68 3 7.36 3 6 C2.01 6 1.02 6 0 6 C0 4.02 0 2.04 0 0 Z " fill="#F1117B" transform="translate(79,240)"/>
<path d="M0 0 C0.66 0 1.32 0 2 0 C2.38133299 1.9914056 2.71325582 3.99279077 3 6 C2.67 6.33 2.34 6.66 2 7 C1.76572222 9.01594582 1.58663876 11.038474 1.4375 13.0625 C1.31181641 14.71958984 1.31181641 14.71958984 1.18359375 16.41015625 C1.12300781 17.26480469 1.06242187 18.11945313 1 19 C0.67 19 0.34 19 0 19 C-0.19425873 16.20865148 -0.38069517 13.41716313 -0.5625 10.625 C-0.61857422 9.8309375 -0.67464844 9.036875 -0.73242188 8.21875 C-1.11328125 2.2265625 -1.11328125 2.2265625 0 0 Z " fill="#E41A7B" transform="translate(371,221)"/>
<path d="M0 0 C1.14889133 3.93905597 1.52582695 7.93565958 2 12 C0.68 11.34 -0.64 10.68 -2 10 C-2.1953125 3.9453125 -2.1953125 3.9453125 -2 2 C-1.34 1.34 -0.68 0.68 0 0 Z " fill="#65B2D2" transform="translate(168,277)"/>
<path d="M0 0 C0.33 0.66 0.66 1.32 1 2 C-0.125 4.5625 -0.125 4.5625 -2 7 C-4.6875 7.8125 -4.6875 7.8125 -7 8 C-7.33 7.01 -7.66 6.02 -8 5 C-7.236875 4.731875 -6.47375 4.46375 -5.6875 4.1875 C-3.12619116 3.05575888 -1.80307062 2.08776599 0 0 Z " fill="#6DA8C8" transform="translate(178,282)"/>
<path d="M0 0 C2.31 0 4.62 0 7 0 C7.66 1.32 8.32 2.64 9 4 C6.33333333 3.33333333 3.66666667 2.66666667 1 2 C0.67 3.32 0.34 4.64 0 6 C-1.125 2.25 -1.125 2.25 0 0 Z " fill="#6FA7C9" transform="translate(389,277)"/>
<path d="M0 0 C0.33 0.99 0.66 1.98 1 3 C0.67 3.66 0.34 4.32 0 5 C-3.63 5 -7.26 5 -11 5 C-10.67 3.68 -10.34 2.36 -10 1 C-8.906875 1.20625 -7.81375 1.4125 -6.6875 1.625 C-2.9161599 2.40346525 -2.9161599 2.40346525 0 0 Z " fill="#65ACDA" transform="translate(125,286)"/>
<path d="M0 0 C0.99 0.495 0.99 0.495 2 1 C2 1.33 2 1.66 2 2 C3.65 2.33 5.3 2.66 7 3 C6.67 3.99 6.34 4.98 6 6 C4.35 6 2.7 6 1 6 C0.67 6.66 0.34 7.32 0 8 C0 5.36 0 2.72 0 0 Z " fill="#5DB2E0" transform="translate(198,279)"/>
<path d="M0 0 C1 3 1 3 0.375 6.4375 C-0.35265548 9.95478158 -0.35265548 9.95478158 1.4375 12.4375 C1.953125 12.953125 2.46875 13.46875 3 14 C1.125 13.375 1.125 13.375 -1 12 C-2.66258082 8.59926651 -3.2486306 6.86064438 -2.1875 3.1875 C-1 1 -1 1 0 0 Z " fill="#C83277" transform="translate(229,231)"/>
<path d="M0 0 C0.99 0.33 1.98 0.66 3 1 C3 1.66 3 2.32 3 3 C3.66 3.33 4.32 3.66 5 4 C4.34 4 3.68 4 3 4 C2.87625 4.804375 2.7525 5.60875 2.625 6.4375 C2.41875 7.283125 2.2125 8.12875 2 9 C1.01 9.495 1.01 9.495 0 10 C0 6.7 0 3.4 0 0 Z " fill="#EA1579" transform="translate(283,218)"/>
<path d="M0 0 C7.01834862 2.02752294 7.01834862 2.02752294 9 5 C9.1875 7.6875 9.1875 7.6875 9 10 C6.66475218 7.74259377 4.81294927 5.7194239 3 3 C2.01 2.67 1.02 2.34 0 2 C0 1.34 0 0.68 0 0 Z " fill="#CF2A76" transform="translate(326,225)"/>
<path d="M0 0 C0.66 0 1.32 0 2 0 C0.125 4.75 0.125 4.75 -1 7 C-1.22622081 8.70363822 -1.40888473 10.41328701 -1.5625 12.125 C-1.64628906 13.03507813 -1.73007813 13.94515625 -1.81640625 14.8828125 C-1.87699219 15.58148438 -1.93757812 16.28015625 -2 17 C-2.33 17 -2.66 17 -3 17 C-3.08160748 15.10489301 -3.13946459 13.20875496 -3.1875 11.3125 C-3.22230469 10.25675781 -3.25710937 9.20101562 -3.29296875 8.11328125 C-2.96409165 4.61841396 -2.12293836 2.77061447 0 0 Z " fill="#CA3271" transform="translate(204,221)"/>
</svg>
